ply
format ascii 1.0
element vertex 468
property float32 x
property float32 y
property float32 z
property float red
property float green
property float blue
element face 734
property list uint8 int32 vertex_indices
end_header
-0.165316 0.0714628 0.950982 0.0 0.0 1.0
-0.181228 0.0568232 0.94484 0.0008237232289950577 0.0 0.999176276771005
-0.164506 0.0483114 0.943947 0.0016474464579901153 0.0 0.9983525535420099
-0.14693 0.0649553 0.94995 0.0024711696869851732 0.0 0.9975288303130149
-0.147049 0.0414524 0.943601 0.0032948929159802307 0.0 0.9967051070840197
-0.131092 0.0608427 0.946287 0.004118616144975288 0.0 0.9958813838550247
-0.145133 0.0451883 0.940799 0.004942339373970346 0.0 0.9950576606260296
-0.135349 0.0393853 0.93962 0.005766062602965403 0.0 0.9942339373970346
-0.182627 0.0778233 0.956616 0.0065897858319604605 0.0 0.9934102141680395
-0.196668 0.0621689 0.951128 0.007413509060955518 0.0 0.9925864909390445
-0.181432 0.0539466 0.950607 0.008237232289950576 0.0 0.9917627677100495
-0.196549 0.0856718 0.957477 0.009060955518945634 0.0 0.9909390444810544
-0.213807 0.0696491 0.950776 0.009884678747940691 0.0 0.9901153212520593
-0.213908 0.096382 0.950982 0.010708401976935749 0.0 0.9892915980230642
-0.229502 0.0823636 0.944142 0.011532125205930806 0.0 0.9884678747940692
-0.213417 0.0726093 0.944645 0.012355848434925864 0.0 0.9876441515650741
-0.230288 0.107006 0.949762 0.013179571663920921 0.0 0.9868204283360791
-0.246663 0.0916007 0.943349 0.014003294892915978 0.0 0.985996705107084
-0.245531 0.119301 0.937456 0.014827018121911036 0.0 0.985172981878089
-0.251977 0.0995711 0.943786 0.015650741350906095 0.0 0.984349258649094
-0.244747 0.0953366 0.940547 0.016474464579901153 0.0 0.9835255354200988
-0.27677 0.214866 0.801432 0.01729818780889621 0.0 0.9827018121911038
-0.271025 0.235707 0.800153 0.018121911037891267 0.0 0.9818780889621087
-0.278569 0.2306 0.783927 0.018945634266886325 0.0 0.9810543657331137
-0.274074 0.203546 0.817802 0.019769357495881382 0.0 0.9802306425041186
-0.267907 0.220477 0.820809 0.02059308072487644 0.0 0.9794069192751236
-0.272756 0.187704 0.834099 0.021416803953871497 0.0 0.9785831960461285
-0.267002 0.206782 0.834264 0.022240527182866555 0.0 0.9777594728171335
-0.27022 0.173906 0.852032 0.023064250411861612 0.0 0.9769357495881383
-0.265075 0.192928 0.850602 0.02388797364085667 0.0 0.9761120263591433
-0.267921 0.161611 0.86812 0.024711696869851727 0.0 0.9752883031301482
-0.263914 0.177665 0.866009 0.025535420098846785 0.0 0.9744645799011532
-0.267757 0.147316 0.880059 0.026359143327841842 0.0 0.9736408566721582
-0.261729 0.165468 0.881707 0.0271828665568369 0.0 0.9728171334431631
-0.265199 0.136564 0.895603 0.028006589785831957 0.0 0.9719934102141681
-0.256761 0.156588 0.90224 0.028830313014827014 0.0 0.971169686985173
-0.262858 0.127114 0.909513 0.029654036243822072 0.0 0.9703459637561779
-0.257879 0.141193 0.911612 0.03047775947281713 0.0 0.9695222405271828
-0.262267 0.113571 0.921999 0.03130148270181219 0.0 0.9686985172981878
-0.255861 0.129966 0.926078 0.03212520593080725 0.0 0.9678747940691927
-0.25714 0.101466 0.939769 0.032948929159802305 0.0 0.9670510708401977
-0.256766 0.116949 0.934109 0.03377265238879736 0.0 0.9662273476112027
-0.0184415 0.0972013 0.78483 0.03459637561779242 0.0 0.9654036243822076
-0.0187013 0.10631 0.801055 0.03542009884678748 0.0 0.9645799011532126
-0.032274 0.0894828 0.802332 0.036243822075782535 0.0 0.9637561779242174
-0.0328945 0.0999581 0.821708 0.03706754530477759 0.0 0.9629324546952224
-0.0430436 0.0850692 0.8187 0.03789126853377265 0.0 0.9621087314662273
-0.044548 0.0927029 0.83516 0.03871499176276771 0.0 0.9612850082372323
-0.056683 0.0768969 0.834994 0.039538714991762765 0.0 0.9604612850082372
-0.0569276 0.0861857 0.851495 0.04036243822075782 0.0 0.9596375617792422
-0.0693725 0.0709072 0.852924 0.04118616144975288 0.0 0.9588138385502472
-0.0700045 0.078224 0.8669 0.04200988467874794 0.0 0.9579901153212521
-0.0807034 0.0656023 0.86901 0.042833607907742995 0.0 0.957166392092257
-0.0811884 0.0728825 0.882595 0.04365733113673805 0.0 0.9563426688632619
-0.092411 0.0573951 0.880948 0.04448105436573311 0.0 0.9555189456342669
-0.091304 0.0717381 0.903126 0.04530477759472817 0.0 0.9546952224052718
-0.10264 0.0532005 0.896489 0.046128500823723224 0.0 0.9538714991762768
-0.103157 0.0618485 0.912496 0.04695222405271828 0.0 0.9530477759472817
-0.111684 0.0495881 0.910397 0.04777594728171334 0.0 0.9522240527182867
-0.113455 0.0569374 0.926961 0.0485996705107084 0.0 0.9514003294892917
-0.12303 0.0421673 0.922881 0.049423393739703454 0.0 0.9505766062602965
-0.123499 0.0486076 0.93499 0.05024711696869851 0.0 0.9497528830313015
-0.202228 0.259053 1.02249 0.05107084019769357 0.0 0.9489291598023064
-0.202447 0.245721 1.02034 0.05189456342668863 0.0 0.9481054365733114
-0.192523 0.254342 1.02551 0.052718286655683684 0.0 0.9472817133443163
-0.1906 0.235903 1.0234 0.05354200988467874 0.0 0.9464579901153213
-0.179602 0.246793 1.02933 0.0543657331136738 0.0 0.9456342668863262
-0.179415 0.230333 1.02685 0.055189456342668856 0.0 0.9448105436573312
-0.162357 0.238634 1.03472 0.056013179571663914 0.0 0.943986820428336
-0.165771 0.214619 1.02968 0.05683690280065897 0.0 0.943163097199341
-0.146925 0.228662 1.03913 0.05766062602965403 0.0 0.942339373970346
-0.146608 0.210197 1.03639 0.058484349258649086 0.0 0.9415156507413509
-0.13077 0.222095 1.04435 0.059308072487644144 0.0 0.9406919275123559
-0.130738 0.202856 1.04138 0.0601317957166392 0.0 0.9398682042833608
-0.111366 0.212175 1.04493 0.06095551894563426 0.0 0.9390444810543658
-0.0482977 0.18038 1.02551 0.061779242174629316 0.0 0.9382207578253707
-0.0495073 0.16729 1.02034 0.06260296540362438 0.0 0.9373970345963756
-0.0388084 0.175248 1.02249 0.06342668863261944 0.0 0.9365733113673805
-0.0619679 0.186468 1.02933 0.0642504118616145 0.0 0.9357495881383855
-0.064394 0.171181 1.0234 0.06507413509060955 0.0 0.9349258649093904
-0.0786568 0.195711 1.03472 0.06589785831960461 0.0 0.9341021416803954
-0.0754444 0.177015 1.02685 0.06672158154859967 0.0 0.9332784184514004
-0.0957605 0.202423 1.03913 0.06754530477759473 0.0 0.9324546952224053
-0.0961671 0.178924 1.02968 0.06836902800658978 0.0 0.9316309719934102
-0.11094 0.191906 1.03639 0.06919275123558484 0.0 0.9308072487644151
-0.21495 0.261181 1.0031 0.0700164744645799 0.0 0.9299835255354201
-0.214816 0.249878 1.01255 0.07084019769357495 0.0 0.929159802306425
-0.207728 0.259206 1.02415 0.07166392092257001 0.0 0.92833607907743
-0.225148 0.261898 0.975031 0.07248764415156507 0.0 0.9275123558484349
-0.225987 0.248896 0.983226 0.07331136738056013 0.0 0.9266886326194399
-0.237512 0.265861 0.938516 0.07413509060955518 0.0 0.9258649093904449
-0.239 0.246328 0.95027 0.07495881383855024 0.0 0.9250411861614498
-0.249378 0.265876 0.906519 0.0757825370675453 0.0 0.9242174629324547
-0.251212 0.246154 0.917439 0.07660626029654036 0.0 0.9233937397034596
-0.260859 0.268624 0.873362 0.07742998352553541 0.0 0.9225700164744646
-0.26212 0.248008 0.886544 0.07825370675453047 0.0 0.9217462932454695
-0.271938 0.270865 0.841696 0.07907742998352553 0.0 0.9209225700164745
-0.271441 0.252146 0.858093 0.07990115321252059 0.0 0.9200988467874794
-0.281925 0.268641 0.816565 0.08072487644151564 0.0 0.9192751235584844
-0.280463 0.258392 0.82875 0.0815485996705107 0.0 0.9184514003294892
-0.0366177 0.171458 1.02504 0.08237232289950576 0.0 0.9176276771004942
-0.0400537 0.160256 1.01344 0.08319604612850082 0.0 0.9168039538714992
-0.0307942 0.166742 1.00399 0.08401976935749587 0.0 0.9159802306425041
-0.0343238 0.150607 0.984118 0.08484349258649093 0.0 0.9151565074135091
-0.0242529 0.158875 0.975923 0.08566721581548599 0.0 0.914332784184514
-0.0288062 0.138536 0.951165 0.08649093904448105 0.0 0.913509060955519
-0.0138091 0.151142 0.939413 0.0873146622734761 0.0 0.9126853377265239
-0.0218126 0.128513 0.918337 0.08813838550247116 0.0 0.9118616144975289
-0.00686365 0.14151 0.907419 0.08896210873146622 0.0 0.9110378912685337
-0.0139323 0.120732 0.887445 0.08978583196046128 0.0 0.9102141680395387
0.00207678 0.133785 0.874265 0.09060955518945633 0.0 0.9093904448105437
-0.00512487 0.115574 0.858997 0.09143327841845139 0.0 0.9085667215815486
0.0103709 0.126091 0.842603 0.09225700164744645 0.0 0.9077429983525536
0.00521996 0.111887 0.829657 0.0930807248764415 0.0 0.9069192751235585
0.0143996 0.116679 0.817475 0.09390444810543656 0.0 0.9060955518945635
-0.94058 0.464161 -2.81369 0.09472817133443162 0.0 0.9052718286655683
-1.13524 0.623563 -3.08199 0.09555189456342668 0.0 0.9044481054365733
-1.35711 0.332541 -3.1458 0.09637561779242174 0.0 0.9036243822075782
-1.23675 0.328285 -3.03807 0.0971993410214168 0.0 0.9028006589785832
-0.93097 0.455047 -2.82657 0.09802306425041185 0.0 0.9019769357495881
-0.91796 0.452561 -2.83944 0.09884678747940691 0.0 0.9011532125205931
-1.11224 0.667785 -3.0817 0.09967051070840197 0.0 0.9003294892915981
-0.872933 0.49543 -2.8602 0.10049423393739702 0.0 0.899505766062603
-0.862397 0.521515 -2.85764 0.10131795716639208 0.0 0.898682042833608
-0.853994 0.5439 -2.85487 0.10214168039538714 0.0 0.8978583196046128
-0.844137 0.583425 -2.84549 0.1029654036243822 0.0 0.8970345963756178
-0.88988 0.467923 -2.85764 0.10378912685337725 0.0 0.8962108731466227
-0.998629 0.672676 -3.01235 0.10461285008237231 0.0 0.8953871499176277
-0.841907 0.628719 -2.82657 0.10543657331136737 0.0 0.8945634266886326
-0.932043 0.525743 -2.79293 0.10626029654036243 0.0 0.8937397034596376
-0.917008 0.549521 -2.79549 0.10708401976935748 0.0 0.8929159802306426
-0.903733 0.569407 -2.79826 0.10790774299835254 0.0 0.8920922570016474
-0.877389 0.600477 -2.80765 0.1087314662273476 0.0 0.8912685337726524
-0.944491 0.495928 -2.79549 0.10955518945634266 0.0 0.8904448105436573
-1.02378 0.685576 -2.98372 0.11037891268533771 0.0 0.8896210873146623
0.0875415 0.627269 -0.934596 0.11120263591433277 0.0 0.8887973640856672
0.0473747 0.634022 -1.20452 0.11202635914332783 0.0 0.8879736408566722
0.0615562 0.659034 -1.16895 0.11285008237232289 0.0 0.8871499176276771
0.0347953 0.654318 -0.932587 0.11367380560131794 0.0 0.8863261943986821
0.0994938 0.646174 -0.715886 0.114497528830313 0.0 0.885502471169687
0.1734 0.509635 -0.715886 0.11532125205930806 0.0 0.8846787479406919
0.104353 0.509124 -1.20817 0.11614497528830312 0.0 0.8838550247116969
-0.0545143 0.626514 -0.715886 0.11696869851729817 0.0 0.8830313014827018
-0.0873026 0.607409 -1.20087 0.11779242174629323 0.0 0.8822075782537068
-0.20974 0.434567 0.836976 0.11861614497528829 0.0 0.8813838550247117
-0.22945 0.415435 0.812886 0.11943986820428334 0.0 0.8805601317957167
-0.139064 0.382979 1.05074 0.1202635914332784 0.0 0.8797364085667216
-0.104628 0.434754 1.05464 0.12108731466227346 0.0 0.8789126853377265
-0.19933 0.462165 0.820504 0.12191103789126852 0.0 0.8780889621087314
-0.20186 0.476068 0.790106 0.12273476112026357 0.0 0.8772652388797364
-0.191098 0.500379 0.699328 0.12355848434925863 0.0 0.8764415156507414
-0.276318 0.355251 0.699328 0.12438220757825369 0.0 0.8756177924217463
-0.239691 0.42301 0.771134 0.12520593080724876 0.0 0.8747940691927513
-0.220223 0.467394 0.752389 0.12602965403624383 0.0 0.8739703459637562
-0.194124 0.449376 0.808007 0.1268533772652389 0.0 0.8731466227347611
-0.19636 0.440459 0.813905 0.12767710049423397 0.0 0.872322899505766
0.191178 0.221079 0.272107 0.12850082372322905 0.0 0.871499176276771
0.0825473 0.171217 0.699328 0.12932454695222412 0.0 0.8706754530477758
0.131717 0.0553759 0.272107 0.1301482701812192 0.0 0.8698517298187808
0.150672 0.325113 0.699328 0.13097199341021426 0.0 0.8690280065897857
0.0249695 0.298859 1.05074 0.13179571663920933 0.0 0.8682042833607907
0.104071 0.244398 0.812886 0.1326194398682044 0.0 0.8673805601317957
0.108106 0.271569 0.836976 0.13344316309719947 0.0 0.8665568369028005
0.0469194 0.357038 1.05464 0.13426688632619455 0.0 0.8657331136738055
0.124442 0.296128 0.820504 0.13509060955518962 0.0 0.8649093904448104
0.137209 0.302186 0.790106 0.1359143327841847 0.0 0.8640856672158153
0.116198 0.240502 0.771134 0.13673805601317976 0.0 0.8632619439868202
0.140881 0.282212 0.752389 0.13756177924217483 0.0 0.8624382207578252
0.105083 0.285873 0.813905 0.1383855024711699 0.0 0.8616144975288301
0.111019 0.292892 0.808007 0.13920922570016497 0.0 0.8607907742998351
-0.109663 0.389108 1.08691 0.14003294892916004 0.0 0.8599670510708399
0.0127899 0.326311 1.08691 0.14085667215815512 0.0 0.8591433278418449
-0.292194 0.263405 0.754163 0.1416803953871502 0.0 0.8583196046128498
-0.302673 0.270221 0.699328 0.14250411861614526 0.0 0.8574958813838547
-0.0729875 0.452666 1.06603 0.14332784184514033 0.0 0.8566721581548596
-0.116727 0.546654 0.699328 0.1441515650741354 0.0 0.8558484349258646
-0.0371176 0.457081 1.07363 0.14497528830313047 0.0 0.8550247116968696
-0.0338186 0.56054 0.699328 0.14579901153212554 0.0 0.8542009884678745
-0.00247896 0.447327 1.0763 0.14662273476112062 0.0 0.8533772652388794
0.0450063 0.539923 0.699328 0.1474464579901157 0.0 0.8525535420098843
0.0256552 0.42489 1.07363 0.14827018121911076 0.0 0.8517298187808893
0.107747 0.487942 0.699328 0.14909390444810583 0.0 0.8509060955518941
0.0430016 0.393184 1.06603 0.1499176276771009 0.0 0.8500823723228991
0.144852 0.412511 0.699328 0.15074135090609597 0.0 0.849258649093904
0.0172252 0.104728 0.754163 0.15156507413509104 0.0 0.848434925864909
0.0288754 0.100196 0.699328 0.15238879736408611 0.0 0.8476112026359139
0.0538386 -0.0467326 0.272107 0.1532125205930812 0.0 0.8467874794069188
0.183609 0.348009 0.269367 0.15403624382207626 0.0 0.8459637561779237
0.143852 0.482537 0.269367 0.15485996705107133 0.0 0.8451400329489287
0.0754651 0.599318 0.269367 0.1556836902800664 0.0 0.8443163097199335
-0.059277 0.586706 0.269367 0.15650741350906147 0.0 0.8434925864909385
-0.191724 0.540488 0.269367 0.15733113673805654 0.0 0.8426688632619435
-0.299218 0.472565 0.272107 0.15815485996705161 0.0 0.8418451400329484
-0.399084 0.327582 0.272107 0.15897858319604669 0.0 0.8410214168039534
-0.436558 0.204753 0.272107 0.15980230642504176 0.0 0.8401976935749582
-0.0838768 0.397663 1.12058 0.16062602965403683 0.0 0.8393739703459632
-0.0574992 0.412542 1.1415 0.1614497528830319 0.0 0.8385502471169681
-0.0324951 0.42177 1.15733 0.16227347611202697 0.0 0.837726523887973
-0.0159623 0.421034 1.15842 0.16309719934102204 0.0 0.8369028006589779
-0.00571754 0.408038 1.15733 0.1639209225700171 0.0 0.8360790774299829
0.00138026 0.382348 1.1415 0.16474464579901218 0.0 0.8352553542009878
0.00468933 0.352244 1.12058 0.16556836902800726 0.0 0.8344316309719928
0.151204 0.0138938 -0.217222 0.16639209225700233 0.0 0.8336079077429976
0.0849373 -0.156834 -0.444799 0.1672158154859974 0.0 0.8327841845140026
0.131196 -0.0253977 -0.715886 0.16803953871499247 0.0 0.8319604612850076
0.0440267 -0.139169 -0.715886 0.16886326194398754 0.0 0.8311367380560124
0.0641975 -0.0998014 -0.217222 0.1696869851729826 0.0 0.8303130148270174
0.0692962 -0.194415 -0.680294 0.17051070840197768 0.0 0.8294892915980223
0.0704937 -0.0554931 -0.024665 0.17133443163097276 0.0 0.8286655683690273
0.0648816 -0.0389368 0.17403 0.17215815485996783 0.0 0.8278418451400322
0.15207 0.0457925 0.186063 0.1729818780889629 0.0 0.8270181219110371
0.205566 0.202288 0.186095 0.17380560131795797 0.0 0.826194398682042
0.191703 0.330997 0.168128 0.17462932454695304 0.0 0.825370675453047
0.137208 0.0499622 0.170187 0.1754530477759481 0.0 0.8245469522240518
0.0684697 -0.0455696 0.0798466 0.17627677100494318 0.0 0.8237232289950568
0.157584 0.0413357 0.0883511 0.17710049423393825 0.0 0.8228995057660617
0.190705 0.206458 0.170219 0.17792421746293333 0.0 0.8220757825370667
0.210209 0.195354 0.0887287 0.1787479406919284 0.0 0.8212520593080717
0.197795 0.335564 0.0752199 0.17957166392092347 0.0 0.8204283360790765
0.142723 0.0455054 0.0724752 0.18039538714991854 0.0 0.8196046128500815
0.161814 0.0335412 -0.00735411 0.1812191103789136 0.0 0.8187808896210864
0.195348 0.199524 0.0728528 0.18204283360790868 0.0 0.8179571663920913
0.214894 0.188357 -0.00951618 0.18286655683690375 0.0 0.8171334431630962
0.204181 0.343704 -0.0214383 0.18369028006589883 0.0 0.8163097199341012
0.146952 0.0377108 -0.02323 0.1845140032948939 0.0 0.8154859967051061
0.0768387 -0.058975 -0.122662 0.18533772652388897 0.0 0.8146622734761111
0.168516 0.0322427 -0.106564 0.18616144975288404 0.0 0.8138385502471159
0.221788 0.187729 -0.108204 0.1869851729818791 0.0 0.8130148270181209
0.200032 0.192527 -0.0253921 0.18780889621087418 0.0 0.8121911037891258
0.21075 0.348406 -0.121672 0.18863261943986925 0.0 0.8113673805601307
0.153654 0.0364123 -0.12244 0.18945634266886432 0.0 0.8105436573311356
0.159717 0.000866273 -0.204194 0.1902800658978594 0.0 0.8097199341021406
0.206926 0.191899 -0.12408 0.19110378912685447 0.0 0.8088962108731456
0.21267 0.156822 -0.199178 0.19192751235584954 0.0 0.8080724876441505
0.212299 0.34756 -0.217222 0.1927512355848446 0.0 0.8072487644151554
-0.436671 0.21827 0.17403 0.19357495881383968 0.0 0.8064250411861603
-0.453391 0.213166 -0.024665 0.19439868204283475 0.0 0.8056013179571653
-0.418743 0.338517 0.186063 0.19522240527182982 0.0 0.8047775947281701
-0.322874 0.473284 0.186096 0.1960461285008249 0.0 0.8039538714991751
-0.210263 0.537134 0.168128 0.19686985172981997 0.0 0.80313014827018
-0.42558 0.340394 0.0883512 0.19769357495881504 0.0 0.802306425041185
-0.444151 0.217313 0.0798466 0.1985172981878101 0.0 0.80148270181219
-0.406684 0.328881 0.170187 0.19934102141680518 0.0 0.8006589785831948
-0.331215 0.473008 0.0887288 0.20016474464580025 0.0 0.7998352553541997
-0.310816 0.463648 0.17022 0.20098846787479532 0.0 0.7990115321252047
-0.21011 0.544745 0.07522 0.2018121911037904 0.0 0.7981878088962095
-0.434378 0.33928 -0.00735402 0.20263591433278547 0.0 0.7973640856672145
-0.413522 0.330759 0.0724753 0.20345963756178054 0.0 0.7965403624382195
-0.339631 0.472729 -0.00951609 0.2042833607907756 0.0 0.7957166392092244
-0.319156 0.463372 0.0728529 0.20510708401977068 0.0 0.7948929159802294
-0.207225 0.554682 -0.0214382 0.20593080724876575 0.0 0.7940691927512342
-0.439344 0.343965 -0.106564 0.20675453047776082 0.0 0.7932454695222392
-0.459921 0.216286 -0.122662 0.2075782537067559 0.0 0.7924217462932441
-0.422319 0.329645 -0.0232299 0.20840197693575097 0.0 0.791598023064249
-0.327572 0.463093 -0.025392 0.20922570016474604 0.0 0.7907742998352539
-0.344164 0.47796 -0.108204 0.2100494233937411 0.0 0.7899505766062589
-0.20724 0.56276 -0.121672 0.21087314662273618 0.0 0.7891268533772638
-0.459689 0.31851 -0.204194 0.21169686985173125 0.0 0.7883031301482688
-0.485699 0.182197 -0.217222 0.21252059308072632 0.0 0.7874794069192737
-0.427285 0.33433 -0.12244 0.2133443163097214 0.0 0.7866556836902786
-0.208832 0.563524 -0.217222 0.21416803953871646 0.0 0.7858319604612836
-0.363942 0.45252 -0.199178 0.21499176276771154 0.0 0.7850082372322884
-0.332105 0.468325 -0.12408 0.2158154859967066 0.0 0.7841845140032934
-0.0419135 -0.0756747 -1.21281 0.21663920922570168 0.0 0.7833607907742983
0.0326083 0.0255148 -1.21349 0.21746293245469675 0.0 0.7825370675453033
0.19904 0.162726 -0.715886 0.21828665568369182 0.0 0.7817133443163082
0.0940933 0.189538 -1.21281 0.2191103789126869 0.0 0.7808896210873131
0.211221 0.345458 -0.715886 0.21993410214168196 0.0 0.780065897858318
0.110382 0.346968 -1.21086 0.22075782537067704 0.0 0.779242174629323
-0.20991 0.561422 -0.715886 0.2215815485996721 0.0 0.7784184514003278
-0.222504 0.517679 -1.19818 0.22240527182866718 0.0 0.7775947281713328
-0.351194 0.444897 -0.715886 0.22322899505766225 0.0 0.7767710049423378
-0.340843 0.412583 -1.19624 0.22405271828665732 0.0 0.7759472817133427
-0.464374 0.280023 -0.715886 0.2248764415156524 0.0 0.7751235584843477
-0.438163 0.266936 -1.19556 0.22570016474464746 0.0 0.7742998352553525
-0.505898 0.142843 -0.715886 0.22652388797364253 0.0 0.7734761120263575
-0.47685 0.14737 -1.19624 0.2273476112026376 0.0 0.7726523887973624
-0.444142 0.319199 -0.217222 0.22817133443163268 0.0 0.7718286655683673
-0.350116 0.446999 -0.217222 0.22899505766062775 0.0 0.7710049423393722
-0.0534363 0.628617 -0.217222 0.22981878088962282 0.0 0.7701812191103772
0.100572 0.648276 -0.217222 0.2306425041186179 0.0 0.7693574958813821
0.174478 0.511737 -0.217222 0.23146622734761296 0.0 0.7685337726523871
0.200118 0.164828 -0.217222 0.23228995057660803 0.0 0.7677100494233919
-0.544116 0.165758 -0.444799 0.2331136738056031 0.0 0.7668863261943969
-0.565507 0.131125 -0.680294 0.23393739703459818 0.0 0.7660626029654019
-0.83545 0.39447 -2.65239 0.23476112026359325 0.0 0.7652388797364067
-0.885959 0.356298 -2.61738 0.23558484349258832 0.0 0.7644151565074117
-0.783939 0.385437 -2.56036 0.2364085667215834 0.0 0.7635914332784166
-0.726355 0.256237 -2.30195 0.23723228995057846 0.0 0.7627677100494216
-0.773034 0.223441 -2.28771 0.23805601317957353 0.0 0.7619439868204265
-0.724096 0.244362 -2.23854 0.2388797364085686 0.0 0.7611202635914314
-0.665891 0.293212 -2.32605 0.23970345963756368 0.0 0.7602965403624363
-0.626668 0.283781 -2.17958 0.24052718286655875 0.0 0.7594728171334413
-0.690409 0.337473 -2.633 0.24135090609555382 0.0 0.7586490939044461
-0.746577 0.28482 -2.72564 0.2421746293245489 0.0 0.7578253706754511
-0.758359 0.354936 -2.71227 0.24299835255354396 0.0 0.757001647446456
-0.477019 0.117655 -2.36493 0.24382207578253903 0.0 0.756177924217461
-0.508822 0.0879482 -2.42285 0.2446457990115341 0.0 0.755354200988466
-0.510873 0.145734 -2.41217 0.24546952224052918 0.0 0.7545304777594708
-0.441313 0.188727 -2.27439 0.24629324546952425 0.0 0.7537067545304758
-0.521022 0.21892 -2.40015 0.24711696869851932 0.0 0.7528830313014807
-0.592308 0.676187 -2.61797 0.2479406919275144 0.0 0.7520593080724856
-0.587573 0.590921 -2.55557 0.24876441515650946 0.0 0.7512355848434905
-0.665904 0.5986 -2.6615 0.24958813838550453 0.0 0.7504118616144955
-0.617295 0.685397 -2.65622 0.2504118616144996 0.0 0.7495881383855004
-0.607846 0.723799 -2.66941 0.2512355848434946 0.0 0.7487644151565054
-0.453727 0.28729 -1.55199 0.25205930807248966 0.0 0.7479406919275103
-0.487459 0.185126 -1.55426 0.2528830313014847 0.0 0.7471169686985153
-0.37137 0.4115 -1.55426 0.25370675453047975 0.0 0.7462932454695202
-0.272004 0.501647 -1.56074 0.2545304777594748 0.0 0.7454695222405252
-0.164086 0.557014 -1.57043 0.25535420098846984 0.0 0.7446457990115302
-0.0568052 0.583291 -1.58187 0.2561779242174649 0.0 0.7438220757825351
-0.01554 0.480837 -1.5933 0.2570016474464599 0.0 0.7429983525535401
0.00247342 0.360889 -1.603 0.25782537067545497 0.0 0.742174629324545
-0.012748 0.227591 -1.60948 0.25864909390445 0.0 0.74135090609555
-0.0655567 0.0882287 -1.61175 0.25947281713344506 0.0 0.740527182866555
-0.128837 0.00121738 -1.60948 0.2602965403624401 0.0 0.7397034596375599
-0.520052 0.324848 -1.84239 0.26112026359143514 0.0 0.7388797364085649
-0.54911 0.239371 -1.84702 0.2619439868204302 0.0 0.7380560131795698
-0.45214 0.428463 -1.84702 0.26276771004942523 0.0 0.7372322899505748
-0.371168 0.504304 -1.8602 0.2635914332784203 0.0 0.7364085667215797
-0.283094 0.553246 -1.87993 0.2644151565074153 0.0 0.7355848434925847
-0.194411 0.581322 -1.9032 0.26523887973641036 0.0 0.7347611202635896
-0.16546 0.492921 -1.92647 0.2660626029654054 0.0 0.7339373970345946
-0.153809 0.392838 -1.94619 0.26688632619440045 0.0 0.7331136738055996
-0.168146 0.282825 -1.95937 0.2677100494233955 0.0 0.7322899505766045
-0.21266 0.167211 -1.964 0.26853377265239053 0.0 0.7314662273476095
-0.265116 0.0937339 -1.95937 0.2693574958813856 0.0 0.7306425041186144
-0.42775 0.198996 -2.29666 0.2701812191103806 0.0 0.7298187808896194
-0.387039 0.256957 -2.30112 0.27100494233937567 0.0 0.7289950576606243
-0.352417 0.345896 -2.29666 0.2718286655683707 0.0 0.7281713344316293
-0.340466 0.430218 -2.28399 0.27265238879736575 0.0 0.7273476112026342
-0.346896 0.508999 -2.26503 0.2734761120263608 0.0 0.7265238879736392
-0.364096 0.583177 -2.24265 0.27429983525535584 0.0 0.7257001647446442
-0.434372 0.553859 -2.22028 0.2751235584843509 0.0 0.7248764415156491
-0.502101 0.513108 -2.20131 0.2759472817133459 0.0 0.7240527182866541
-0.563603 0.454197 -2.18864 0.27677100494234097 0.0 0.723228995057659
-0.615624 0.37418 -2.18419 0.277594728171336 0.0 0.722405271828664
-0.638936 0.307297 -2.18864 0.27841845140033106 0.0 0.7215815485996689
-0.773338 0.397014 -2.50249 0.2792421746293261 0.0 0.7207578253706739
-0.757572 0.441626 -2.49811 0.28006589785832114 0.0 0.7199341021416789
-0.724606 0.49204 -2.50249 0.2808896210873162 0.0 0.7191103789126838
-0.685396 0.529003 -2.51494 0.28171334431631123 0.0 0.7182866556836888
-0.63966 0.559079 -2.53358 0.2825370675453063 0.0 0.7174629324546937
-0.583037 0.530041 -2.57756 0.2833607907743013 0.0 0.7166392092256987
-0.580771 0.475349 -2.5962 0.28418451400329636 0.0 0.7158154859967036
-0.587906 0.421938 -2.60865 0.2850082372322914 0.0 0.7149917627677086
-0.609609 0.365748 -2.61303 0.28583196046128645 0.0 0.7141680395387136
-0.636638 0.326911 -2.60865 0.2866556836902815 0.0 0.7133443163097185
-0.903531 0.457083 -2.85035 0.28747940691927654 0.0 0.7125205930807235
-0.945328 0.478517 -2.80278 0.2883031301482716 0.0 0.7116968698517284
-0.265543 0.0262224 0.781723 0.2891268533772666 0.0 0.7108731466227334
-0.227895 0.17752 0.795268 0.28995057660626167 0.0 0.7100494233937383
-0.339981 0.101677 0.665075 0.2907742998352567 0.0 0.7092257001647433
-0.303893 0.0286823 0.665075 0.29159802306425175 0.0 0.7084019769357482
-0.0900415 0.106826 0.795268 0.2924217462932468 0.0 0.7075782537067532
-0.0862242 -0.0284542 0.665075 0.29324546952224184 0.0 0.7067545304777582
-0.190937 -0.0120369 0.781723 0.2940691927512369 0.0 0.7059308072487631
-0.166561 -0.0417444 0.665075 0.29489291598023193 0.0 0.7051070840197681
-0.2327 -0.00160346 0.79227 0.295716639209227 0.0 0.704283360790773
-0.242996 -0.0216807 0.665075 0.296540362438222 0.0 0.703459637561778
-0.369171 -0.0175871 0.272107 0.29736408566721706 0.0 0.7026359143327829
-0.278331 -0.0905837 0.272107 0.2981878088962121 0.0 0.7018121911037879
-0.166042 -0.121756 0.272107 0.29901153212520715 0.0 0.7009884678747929
-0.0493996 -0.106357 0.272107 0.2998352553542022 0.0 0.7001647446457978
-0.424733 0.0861213 0.272107 0.30065897858319723 0.0 0.6993410214168028
-0.224385 0.0537993 0.919959 0.3014827018121923 0.0 0.6985172981878077
-0.233723 0.0791581 0.951743 0.3023064250411873 0.0 0.6976935749588127
-0.170118 0.0465402 0.947306 0.30313014827018236 0.0 0.6968698517298176
-0.192559 0.0374787 0.919959 0.3039538714991774 0.0 0.6960461285008226
-0.209603 0.0434342 0.919155 0.30477759472817245 0.0 0.6952224052718275
-0.0716609 -0.206153 -0.715886 0.3056013179571675 0.0 0.6943986820428325
0.0362234 -0.21166 -0.444799 0.30642504118616254 0.0 0.6935749588138375
-0.0512331 -0.166658 -0.217222 0.3072487644151576 0.0 0.6927512355848424
-0.430351 -0.106368 -0.715886 0.3080724876441526 0.0 0.6919275123558474
-0.42451 -0.0643059 -1.20109 0.30889621087314767 0.0 0.6911037891268523
-0.344988 -0.131084 -1.20452 0.3097199341021427 0.0 0.6902800658978573
-0.328427 -0.188271 -0.715886 0.31054365733113776 0.0 0.6894563426688622
-0.202437 -0.223247 -0.715886 0.3113673805601328 0.0 0.6886326194398672
-0.244353 -0.156694 -1.20795 0.31219110378912784 0.0 0.6878088962108722
-0.137928 -0.137237 -1.21086 0.3130148270181229 0.0 0.6869851729818771
-0.492784 0.00980755 -0.715886 0.31383855024711793 0.0 0.6861614497528821
-0.470814 0.033474 -1.19818 0.314662273476113 0.0 0.685337726523887
-0.410233 -0.0671364 -0.217222 0.315485996705108 0.0 0.684514003294892
-0.472632 0.049444 -0.217222 0.31630971993410306 0.0 0.6836902800658969
-0.182318 -0.184015 -0.217222 0.3171334431630981 0.0 0.6828665568369019
-0.308308 -0.14904 -0.217222 0.31795716639209315 0.0 0.6820428336079069
-0.560212 0.0942041 -0.444799 0.3187808896210882 0.0 0.6812191103789118
-0.483679 0.0888814 -1.56074 0.31960461285008324 0.0 0.6803953871499168
-0.446299 0.00669894 -1.57043 0.3204283360790783 0.0 0.6795716639209217
-0.209201 -0.0518763 -1.603 0.3212520593080733 0.0 0.6787479406919267
-0.297753 -0.0694786 -1.5933 0.32207578253706837 0.0 0.6779242174629316
-0.381011 -0.0489097 -1.58187 0.3228995057660634 0.0 0.6771004942339366
-0.547642 0.160179 -1.8602 0.32372322899505845 0.0 0.6762767710049415
-0.519061 0.0931093 -1.87993 0.3245469522240535 0.0 0.6754530477759465
-0.330283 0.0487124 -1.94619 0.32537067545304854 0.0 0.6746293245469515
-0.401427 0.0327843 -1.92647 0.3261943986820436 0.0 0.6738056013179564
-0.467717 0.0483744 -1.9032 0.32701812191103863 0.0 0.6729818780889614
-0.618028 0.19573 -2.22028 0.32784184514003367 0.0 0.6721581548599663
-0.580049 0.162069 -2.24265 0.3286655683690287 0.0 0.6713344316309713
-0.530552 0.15087 -2.26503 0.32948929159802376 0.0 0.6705107084019762
-0.477072 0.163837 -2.28399 0.3303130148270188 0.0 0.6696869851729812
-0.638706 0.246727 -2.20131 0.33113673805601385 0.0 0.6688632619439862
-0.759135 0.326101 -2.53358 0.3319604612850089 0.0 0.6680395387149911
-0.772788 0.358589 -2.51494 0.33278418451400393 0.0 0.6672158154859961
-0.668163 0.304935 -2.5962 0.333607907742999 0.0 0.666392092257001
-0.702512 0.297064 -2.57756 0.334431630971994 0.0 0.665568369028006
-0.734457 0.304497 -2.55557 0.33525535420098906 0.0 0.6647446457990109
-0.850898 0.725834 -2.87823 0.3360790774299841 0.0 0.6639209225700159
-0.835228 0.864869 -2.92711 0.33690280065897915 0.0 0.6630971993410208
-0.798864 1.10581 -3.00372 0.3377265238879742 0.0 0.6622734761120258
-0.79322 1.38778 -3.12582 0.33855024711696924 0.0 0.6614497528830308
-0.836863 1.52005 -3.22377 0.3393739703459643 0.0 0.6606260296540357
-0.883656 1.41533 -3.2177 0.3401976935749593 0.0 0.6598023064250407
-0.932058 1.15878 -3.14463 0.34102141680395437 0.0 0.6589785831960456
0.167489 0.778764 -0.804107 0.3418451400329494 0.0 0.6581548599670506
0.208715 0.927578 -0.921071 0.34266886326194446 0.0 0.6573311367380555
0.239004 0.99233 -0.997635 0.3434925864909395 0.0 0.6565074135090605
0.275892 1.07345 -1.12134 0.34431630971993454 0.0 0.6556836902800655
0.296624 1.12101 -1.21727 0.3451400329489296 0.0 0.6548599670510704
0.252463 1.03378 -1.20227 0.34596375617792463 0.0 0.6540362438220754
0.190494 0.913966 -1.2161 0.3467874794069197 0.0 0.6532125205930803
0.104863 0.746974 -1.21595 0.3476112026359147 0.0 0.6523887973640853
0.0903933 0.720884 -1.24458 0.34843492586490976 0.0 0.6515650741350902
0.0732182 0.686985 -1.23908 0.3492586490939048 0.0 0.6507413509060952
-0.199832 0.430711 0.813087 0.35008237232289985 0.0 0.6499176276771002
-0.203608 0.422741 0.805772 0.3509060955518949 0.0 0.6490939044481051
-0.206677 0.418687 0.79392 0.35172981878088994 0.0 0.6482701812191101
-0.208217 0.419633 0.780707 0.352553542009885 0.0 0.647446457990115
-0.207815 0.425328 0.769673 0.35337726523888 0.0 0.64662273476112
-0.205579 0.434244 0.763775 0.35420098846787507 0.0 0.6457990115321249
-0.202107 0.443993 0.764593 0.3550247116968701 0.0 0.6449752883031299
-0.198331 0.451962 0.771909 0.35584843492586515 0.0 0.6441515650741348
-0.195262 0.456017 0.783761 0.3566721581548602 0.0 0.6433278418451398
-0.193722 0.45507 0.796973 0.35749588138385524 0.0 0.6425041186161448
0.0991921 0.277365 0.813087 0.3583196046128503 0.0 0.6416803953871497
0.094924 0.269648 0.805772 0.35914332784184533 0.0 0.6408566721581547
0.0934225 0.264789 0.79392 0.35996705107084037 0.0 0.6400329489291596
0.0950899 0.264091 0.780707 0.3607907742998354 0.0 0.6392092257001646
0.0994795 0.26774 0.769673 0.36161449752883046 0.0 0.6383855024711695
0.105415 0.27476 0.763775 0.3624382207578255 0.0 0.6375617792421745
0.111306 0.283268 0.764593 0.36326194398682055 0.0 0.6367380560131795
0.115574 0.290985 0.771909 0.3640856672158156 0.0 0.6359143327841844
0.117076 0.295844 0.783761 0.36490939044481063 0.0 0.6350906095551894
0.115409 0.296542 0.796973 0.3657331136738057 0.0 0.6342668863261943
-0.118593 0.222904 1.04843 0.3665568369028007 0.0 0.6334431630971993
-0.0351218 0.175564 1.02512 0.36738056013179576 0.0 0.6326194398682042
-0.205331 0.263121 1.02462 0.3682042833607908 0.0 0.6317957166392092
0.337911 -0.524097 -0.536808 0.36902800658978585 0.0 0.6309719934102141
0.248826 -0.393287 -0.397413 0.3698517298187809 0.0 0.6301482701812191
0.444837 -0.666306 -0.699083 0.37067545304777594 0.0 0.6293245469522241
0.502694 -0.747847 -0.840157 0.371499176276771 0.0 0.628500823723229
0.501187 -0.746062 -0.910318 0.372322899505766 0.0 0.627677100494234
0.414368 -0.655624 -0.884919 0.37314662273476107 0.0 0.6268533772652389
0.339304 -0.525722 -0.829333 0.3739703459637561 0.0 0.6260296540362439
0.218619 -0.358049 -0.760222 0.37479406919275116 0.0 0.6252059308072488
0.170867 -0.309953 -0.75194 0.3756177924217462 0.0 0.6243822075782538
0.0853346 -0.213125 -0.750468 0.37644151565074124 0.0 0.6235584843492588
-0.590061 0.133232 -0.750468 0.3772652388797363 0.0 0.6227347611202637
-0.718605 0.146187 -0.75194 0.37808896210873133 0.0 0.6219110378912687
-0.785528 0.156899 -0.760222 0.3789126853377264 0.0 0.6210873146622736
-1.00612 0.164241 -0.829333 0.3797364085667214 0.0 0.6202635914332786
-1.14841 0.145799 -0.884919 0.38056013179571646 0.0 0.6194398682042835
-1.27653 0.165588 -0.910318 0.3813838550247115 0.0 0.6186161449752885
-1.26783 0.160114 -0.840156 0.38220757825370655 0.0 0.6177924217462935
-1.17486 0.164309 -0.699083 0.3830313014827016 0.0 0.6169686985172984
-1.00399 0.164058 -0.536808 0.38385502471169664 0.0 0.6161449752883034
-0.831771 0.160865 -0.397413 0.3846787479406917 0.0 0.6153212520593083
3 0 1 2
3 3 2 4
3 5 6 7
3 8 9 10
3 11 12 9
3 13 14 15
3 16 17 14
3 18 19 20
3 21 22 23
3 24 25 21
3 26 27 24
3 28 29 26
3 30 31 28
3 32 33 30
3 34 35 32
3 36 37 34
3 38 39 36
3 40 41 38
3 42 43 44
3 44 45 46
3 46 47 48
3 48 49 50
3 50 51 52
3 52 53 54
3 54 55 56
3 56 57 58
3 58 59 60
3 60 61 7
3 62 63 64
3 64 65 66
3 66 67 68
3 68 69 70
3 70 71 72
3 72 73 74
3 75 76 77
3 78 79 75
3 80 81 78
3 82 83 80
3 74 84 82
3 85 86 87
3 88 89 85
3 90 91 88
3 92 93 90
3 94 95 92
3 96 97 94
3 98 99 96
3 100 101 102
3 102 103 104
3 104 105 106
3 106 107 108
3 108 109 110
3 110 111 112
3 112 113 114
3 115 116 117
3 115 117 118
3 118 119 115
3 120 117 116
3 120 118 117
3 120 119 118
3 121 122 116
3 121 123 122
3 121 124 123
3 121 125 124
3 116 122 126
3 127 125 121
3 127 125 121
3 127 128 125
3 116 129 121
3 129 130 121
3 130 131 121
3 131 132 121
3 133 129 116
3 134 132 121
3 121 132 134
3 132 128 134
3 135 136 137
3 137 136 138
3 139 140 135
3 136 135 141
3 141 135 140
3 138 142 139
3 143 138 136
3 142 138 143
3 144 145 146
3 144 146 147
3 148 144 147
3 149 148 147
3 149 147 150
3 146 145 151
3 151 145 152
3 151 152 153
3 151 153 150
3 153 149 150
3 154 155 148
3 156 157 158
3 159 157 156
3 160 161 162
3 163 160 162
3 163 162 164
3 163 164 165
3 159 163 165
3 157 161 160
3 166 161 157
3 167 166 157
3 159 167 157
3 159 165 167
3 164 168 169
3 170 146 160
3 170 160 171
3 172 146 151
3 172 151 173
3 147 174 175
3 147 175 150
3 174 176 177
3 174 177 175
3 176 178 179
3 176 179 177
3 178 180 181
3 178 181 179
3 180 182 183
3 180 183 181
3 182 163 159
3 182 159 183
3 160 184 185
3 160 185 157
3 157 185 186
3 157 186 158
3 183 159 156
3 183 156 187
3 181 183 187
3 181 187 188
3 179 181 188
3 179 188 189
3 177 179 189
3 177 189 190
3 175 177 190
3 175 190 191
3 150 175 191
3 150 191 192
3 151 150 192
3 151 192 193
3 173 151 193
3 173 193 194
3 170 195 147
3 170 147 146
3 195 196 174
3 195 174 147
3 196 197 176
3 196 176 174
3 197 198 178
3 197 178 176
3 198 199 180
3 198 180 178
3 199 200 182
3 199 182 180
3 200 201 163
3 200 163 182
3 201 171 160
3 201 160 163
3 201 195 170
3 201 170 171
3 196 195 201
3 196 201 200
3 197 196 200
3 197 200 199
3 198 197 199
3 202 203 204
3 204 203 205
3 203 202 206
3 207 205 203
3 208 209 186
3 158 186 209
3 158 209 210
3 156 158 210
3 156 210 211
3 187 156 211
3 187 211 212
3 213 209 214
3 213 214 215
3 216 213 215
3 216 215 217
3 212 216 217
3 212 217 218
3 219 214 208
3 219 208 220
3 221 219 220
3 221 220 222
3 218 221 222
3 218 222 223
3 224 208 225
3 224 225 226
3 224 226 227
3 224 227 228
3 228 227 229
3 228 229 223
3 230 225 206
3 230 206 231
3 232 233 234
3 232 234 229
3 230 231 233
3 230 233 232
3 187 229 234
3 187 223 229
3 187 218 223
3 187 212 218
3 206 208 186
3 206 225 208
3 194 235 236
3 237 235 194
3 237 194 193
3 238 237 193
3 238 193 192
3 239 238 192
3 239 192 191
3 240 241 235
3 240 235 242
3 243 240 242
3 243 242 244
3 245 243 244
3 245 244 239
3 246 236 241
3 246 241 247
3 248 246 247
3 248 247 249
3 250 248 249
3 250 249 245
3 251 252 236
3 251 236 253
3 254 255 251
3 254 251 253
3 250 256 255
3 250 255 254
3 257 258 252
3 257 252 259
3 256 260 261
3 256 261 262
3 262 261 257
3 262 257 259
3 260 256 191
3 256 250 191
3 250 245 191
3 245 239 191
3 194 236 258
3 236 252 258
3 204 205 263
3 204 263 264
3 265 204 264
3 265 264 266
3 267 265 266
3 267 266 268
3 140 267 268
3 140 268 141
3 269 142 143
3 269 143 270
3 271 269 270
3 271 270 272
3 273 271 272
3 273 272 274
3 275 273 274
3 275 274 276
3 277 278 271
3 277 271 273
3 278 260 269
3 278 269 271
3 260 279 142
3 260 142 269
3 279 280 139
3 279 139 142
3 280 281 140
3 280 140 139
3 281 234 267
3 281 267 140
3 234 282 265
3 234 265 267
3 282 202 204
3 282 204 265
3 188 187 234
3 188 234 281
3 189 188 281
3 189 281 280
3 190 189 280
3 190 280 279
3 191 190 279
3 191 279 260
3 235 241 236
3 214 209 208
3 273 283 277
3 275 283 273
3 258 277 283
3 283 275 284
3 285 286 287
3 288 289 290
3 291 288 290
3 291 290 292
3 293 294 295
3 296 297 298
3 299 296 298
3 299 298 300
3 301 302 303
3 301 303 304
3 305 301 304
3 276 274 306
3 276 306 307
3 274 272 308
3 274 308 306
3 272 270 309
3 272 309 308
3 270 143 310
3 270 310 309
3 143 136 311
3 143 311 310
3 136 141 312
3 136 312 311
3 141 268 313
3 141 313 312
3 268 266 314
3 268 314 313
3 266 264 315
3 266 315 314
3 264 263 316
3 264 316 315
3 307 306 317
3 307 317 318
3 306 308 319
3 306 319 317
3 308 309 320
3 308 320 319
3 309 310 321
3 309 321 320
3 310 311 322
3 310 322 321
3 311 312 323
3 311 323 322
3 312 313 324
3 312 324 323
3 313 314 325
3 313 325 324
3 314 315 326
3 314 326 325
3 315 316 327
3 315 327 326
3 326 327 328
3 326 328 329
3 325 326 329
3 325 329 330
3 324 325 330
3 324 330 331
3 323 324 331
3 323 331 332
3 322 323 332
3 322 332 333
3 321 322 333
3 321 333 334
3 320 321 334
3 320 334 335
3 319 320 335
3 319 335 336
3 317 319 336
3 317 336 337
3 318 317 337
3 318 337 338
3 339 340 129
3 339 129 133
3 340 341 130
3 340 130 129
3 341 342 131
3 341 131 130
3 342 343 132
3 342 132 131
3 343 302 128
3 343 128 132
3 302 344 125
3 302 125 128
3 344 345 124
3 344 124 125
3 345 346 123
3 345 123 124
3 346 347 122
3 346 122 123
3 347 348 126
3 347 126 122
3 329 328 348
3 329 348 347
3 330 329 347
3 330 347 346
3 331 330 346
3 331 346 345
3 332 331 345
3 332 345 344
3 333 332 344
3 333 344 302
3 334 333 302
3 334 302 343
3 335 334 343
3 335 343 342
3 336 335 342
3 336 342 341
3 337 336 341
3 337 341 340
3 338 337 340
3 338 340 339
3 116 126 349
3 116 349 120
3 350 133 116
3 115 350 116
3 351 352 353
3 351 353 354
3 352 172 173
3 352 173 353
3 184 355 356
3 184 356 185
3 355 357 358
3 355 358 356
3 357 359 360
3 357 360 358
3 359 351 354
3 359 354 360
3 360 354 361
3 360 361 362
3 358 360 362
3 358 362 363
3 356 358 363
3 356 363 364
3 185 356 364
3 185 364 186
3 353 173 194
3 353 194 365
3 354 353 365
3 354 365 361
3 366 367 352
3 366 352 351
3 367 40 172
3 367 172 352
3 7 368 355
3 7 355 184
3 368 369 357
3 368 357 355
3 369 370 359
3 369 359 357
3 370 366 351
3 370 351 359
3 367 366 370
3 367 370 369
3 367 369 368
3 371 372 373
3 206 373 372
3 205 372 371
3 374 375 376
3 374 376 377
3 186 364 373
3 186 373 206
3 378 377 376
3 378 376 379
3 371 378 379
3 371 379 380
3 205 371 380
3 205 380 263
3 381 275 276
3 381 276 382
3 374 381 382
3 374 382 375
3 383 384 381
3 383 381 374
3 373 385 378
3 373 378 371
3 385 386 377
3 385 377 378
3 386 383 374
3 386 374 377
3 362 361 383
3 362 383 386
3 363 362 386
3 363 386 385
3 364 363 385
3 364 385 373
3 365 194 258
3 365 258 384
3 361 365 384
3 361 384 383
3 384 387 381
3 381 387 275
3 387 384 258
3 98 172 23
3 114 42 184
3 375 382 388
3 375 388 389
3 382 276 307
3 382 307 388
3 263 380 390
3 263 390 316
3 380 379 391
3 380 391 390
3 379 376 392
3 379 392 391
3 376 375 389
3 376 389 392
3 389 388 393
3 389 393 394
3 388 307 318
3 388 318 393
3 316 390 395
3 316 395 327
3 390 391 396
3 390 396 395
3 391 392 397
3 391 397 396
3 392 389 394
3 392 394 397
3 397 394 398
3 397 398 399
3 396 397 399
3 396 399 400
3 395 396 400
3 395 400 401
3 327 395 401
3 327 401 328
3 393 318 338
3 393 338 402
3 394 393 402
3 394 402 398
3 403 404 350
3 403 350 115
3 404 339 133
3 404 133 350
3 348 405 349
3 348 349 126
3 405 406 120
3 405 120 349
3 406 407 119
3 406 119 120
3 407 403 115
3 407 115 119
3 399 398 403
3 399 403 407
3 400 399 407
3 400 407 406
3 401 400 406
3 401 406 405
3 328 401 405
3 328 405 348
3 402 338 339
3 402 339 404
3 398 402 404
3 398 404 403
3 127 408 128
3 127 409 408
3 127 410 409
3 127 411 410
3 127 412 411
3 127 413 412
3 127 414 413
3 127 121 414
3 128 408 134
3 408 409 134
3 409 410 134
3 410 411 134
3 411 412 134
3 412 413 134
3 413 414 134
3 414 121 134
3 415 139 135
3 416 415 135
3 417 416 135
3 418 417 135
3 419 418 135
3 420 419 135
3 421 420 135
3 422 421 135
3 423 422 135
3 424 423 135
3 135 137 424
3 138 139 415
3 138 415 416
3 138 416 417
3 138 417 418
3 138 418 419
3 138 419 420
3 138 420 421
3 138 421 422
3 138 422 423
3 138 423 424
3 424 137 138
3 155 425 144
3 425 426 144
3 426 427 145
3 427 428 145
3 428 429 152
3 429 430 152
3 430 431 153
3 431 432 153
3 432 433 149
3 433 434 149
3 434 154 148
3 144 426 145
3 145 428 152
3 152 430 153
3 153 432 149
3 149 434 148
3 155 144 148
3 162 435 168
3 162 436 435
3 161 437 436
3 161 438 437
3 166 439 438
3 166 440 439
3 167 441 440
3 167 442 441
3 165 443 442
3 165 444 443
3 164 169 444
3 161 436 162
3 166 438 161
3 167 440 166
3 165 442 167
3 164 444 165
3 164 162 168
3 160 445 446
3 146 445 160
3 146 447 445
3 146 172 447
3 160 446 184
3 40 367 368
3 40 368 7
3 445 447 446
3 40 7 184
3 40 184 172
3 184 446 447
3 184 447 172
3 233 231 202
3 233 202 282
3 233 282 234
3 227 232 229
3 226 225 230
3 226 230 232
3 226 232 227
3 222 220 224
3 222 224 228
3 220 208 224
3 217 221 218
3 217 215 219
3 217 219 221
3 215 214 219
3 210 209 213
3 222 228 223
3 211 216 212
3 211 210 213
3 211 213 216
3 231 206 202
3 278 277 257
3 278 257 261
3 260 278 261
3 256 262 255
3 259 252 251
3 255 262 259
3 255 259 251
3 254 253 246
3 254 246 248
3 253 236 246
3 245 249 243
3 249 247 240
3 249 240 243
3 247 241 240
3 242 235 237
3 250 254 248
3 239 244 238
3 244 242 237
3 244 237 238
3 277 258 257
3 448 449 372
3 449 206 372
3 450 448 372
3 451 450 372
3 452 451 372
3 453 452 372
3 454 453 372
3 455 454 372
3 456 455 372
3 457 456 372
3 372 205 207
3 372 207 457
3 457 207 203
3 203 456 457
3 203 455 456
3 203 454 455
3 203 453 454
3 203 452 453
3 203 451 452
3 203 450 451
3 203 448 450
3 203 449 448
3 203 206 449
3 430 429 428
3 430 428 427
3 430 427 426
3 430 426 425
3 430 425 155
3 430 155 154
3 430 154 434
3 430 434 433
3 430 433 432
3 430 432 431
3 441 442 443
3 441 443 444
3 441 444 169
3 441 169 168
3 441 168 435
3 441 435 436
3 441 436 437
3 441 437 438
3 441 438 439
3 441 439 440
3 458 284 387
3 284 275 387
3 387 459 458
3 387 460 459
3 387 461 460
3 387 462 461
3 387 463 462
3 387 464 463
3 387 465 464
3 387 466 465
3 387 467 466
3 387 258 467
3 283 284 458
3 458 459 283
3 459 460 283
3 460 461 283
3 461 462 283
3 462 463 283
3 463 464 283
3 464 465 283
3 465 466 283
3 466 467 283
3 467 258 283