ply
format ascii 1.0
element vertex 468
property float32 x
property float32 y
property float32 z
property float red
property float green
property float blue
element face 734
property list uint8 int32 vertex_indices
end_header
-0.165316 0.0714628 0.950982 0.0 1.0 0.0
-0.181228 0.0568232 0.94484 0.006606110652353427 0.9933938893476466 0.0
-0.164506 0.0483114 0.943947 0.013212221304706853 0.9867877786952931 0.0
-0.14693 0.0649553 0.94995 0.01981833195706028 0.9801816680429397 0.0
-0.147049 0.0414524 0.943601 0.026424442609413706 0.9735755573905863 0.0
-0.131092 0.0608427 0.946287 0.03303055326176713 0.9669694467382328 0.0
-0.145133 0.0451883 0.940799 0.03963666391412056 0.9603633360858794 0.0
-0.135349 0.0393853 0.93962 0.046242774566473986 0.953757225433526 0.0
-0.182627 0.0778233 0.956616 0.05284888521882741 0.9471511147811726 0.0
-0.196668 0.0621689 0.951128 0.05945499587118084 0.9405450041288191 0.0
-0.181432 0.0539466 0.950607 0.06606110652353427 0.9339388934764657 0.0
-0.196549 0.0856718 0.957477 0.0726672171758877 0.9273327828241122 0.0
-0.213807 0.0696491 0.950776 0.07927332782824112 0.9207266721717589 0.0
-0.213908 0.096382 0.950982 0.08587943848059454 0.9141205615194055 0.0
-0.229502 0.0823636 0.944142 0.09248554913294796 0.9075144508670521 0.0
-0.213417 0.0726093 0.944645 0.09909165978530138 0.9009083402146987 0.0
-0.230288 0.107006 0.949762 0.1056977704376548 0.8943022295623452 0.0
-0.246663 0.0916007 0.943349 0.11230388109000822 0.8876961189099918 0.0
-0.245531 0.119301 0.937456 0.11890999174236164 0.8810900082576384 0.0
-0.251977 0.0995711 0.943786 0.12551610239471506 0.8744838976052849 0.0
-0.244747 0.0953366 0.940547 0.13212221304706848 0.8678777869529315 0.0
-0.27677 0.214866 0.801432 0.1387283236994219 0.8612716763005781 0.0
-0.271025 0.235707 0.800153 0.14533443435177532 0.8546655656482247 0.0
-0.278569 0.2306 0.783927 0.15194054500412874 0.8480594549958713 0.0
-0.274074 0.203546 0.817802 0.15854665565648215 0.8414533443435178 0.0
-0.267907 0.220477 0.820809 0.16515276630883557 0.8348472336911644 0.0
-0.272756 0.187704 0.834099 0.171758876961189 0.828241123038811 0.0
-0.267002 0.206782 0.834264 0.17836498761354241 0.8216350123864575 0.0
-0.27022 0.173906 0.852032 0.18497109826589583 0.8150289017341041 0.0
-0.265075 0.192928 0.850602 0.19157720891824925 0.8084227910817507 0.0
-0.267921 0.161611 0.86812 0.19818331957060267 0.8018166804293974 0.0
-0.263914 0.177665 0.866009 0.2047894302229561 0.795210569777044 0.0
-0.267757 0.147316 0.880059 0.2113955408753095 0.7886044591246905 0.0
-0.261729 0.165468 0.881707 0.21800165152766293 0.7819983484723371 0.0
-0.265199 0.136564 0.895603 0.22460776218001635 0.7753922378199837 0.0
-0.256761 0.156588 0.90224 0.23121387283236977 0.7687861271676302 0.0
-0.262858 0.127114 0.909513 0.2378199834847232 0.7621800165152768 0.0
-0.257879 0.141193 0.911612 0.2444260941370766 0.7555739058629234 0.0
-0.262267 0.113571 0.921999 0.25103220478943006 0.74896779521057 0.0
-0.255861 0.129966 0.926078 0.2576383154417835 0.7423616845582165 0.0
-0.25714 0.101466 0.939769 0.26424442609413695 0.735755573905863 0.0
-0.256766 0.116949 0.934109 0.2708505367464904 0.7291494632535096 0.0
-0.0184415 0.0972013 0.78483 0.27745664739884385 0.7225433526011562 0.0
-0.0187013 0.10631 0.801055 0.2840627580511973 0.7159372419488027 0.0
-0.032274 0.0894828 0.802332 0.29066886870355074 0.7093311312964492 0.0
-0.0328945 0.0999581 0.821708 0.2972749793559042 0.7027250206440958 0.0
-0.0430436 0.0850692 0.8187 0.30388109000825764 0.6961189099917424 0.0
-0.044548 0.0927029 0.83516 0.3104872006606111 0.6895127993393889 0.0
-0.056683 0.0768969 0.834994 0.31709331131296453 0.6829066886870354 0.0
-0.0569276 0.0861857 0.851495 0.323699421965318 0.676300578034682 0.0
-0.0693725 0.0709072 0.852924 0.3303055326176714 0.6696944673823286 0.0
-0.0700045 0.078224 0.8669 0.3369116432700249 0.6630883567299751 0.0
-0.0807034 0.0656023 0.86901 0.3435177539223783 0.6564822460776216 0.0
-0.0811884 0.0728825 0.882595 0.35012386457473177 0.6498761354252682 0.0
-0.092411 0.0573951 0.880948 0.3567299752270852 0.6432700247729148 0.0
-0.091304 0.0717381 0.903126 0.36333608587943866 0.6366639141205613 0.0
-0.10264 0.0532005 0.896489 0.3699421965317921 0.6300578034682078 0.0
-0.103157 0.0618485 0.912496 0.37654830718414556 0.6234516928158544 0.0
-0.111684 0.0495881 0.910397 0.383154417836499 0.616845582163501 0.0
-0.113455 0.0569374 0.926961 0.38976052848885245 0.6102394715111475 0.0
-0.12303 0.0421673 0.922881 0.3963666391412059 0.603633360858794 0.0
-0.123499 0.0486076 0.93499 0.40297274979355935 0.5970272502064407 0.0
-0.202228 0.259053 1.02249 0.4095788604459128 0.5904211395540873 0.0
-0.202447 0.245721 1.02034 0.41618497109826624 0.5838150289017338 0.0
-0.192523 0.254342 1.02551 0.4227910817506197 0.5772089182493803 0.0
-0.1906 0.235903 1.0234 0.42939719240297314 0.5706028075970269 0.0
-0.179602 0.246793 1.02933 0.4360033030553266 0.5639966969446735 0.0
-0.179415 0.230333 1.02685 0.44260941370768003 0.55739058629232 0.0
-0.162357 0.238634 1.03472 0.4492155243600335 0.5507844756399665 0.0
-0.165771 0.214619 1.02968 0.4558216350123869 0.5441783649876131 0.0
-0.146925 0.228662 1.03913 0.4624277456647404 0.5375722543352597 0.0
-0.146608 0.210197 1.03639 0.4690338563170938 0.5309661436829062 0.0
-0.13077 0.222095 1.04435 0.47563996696944727 0.5243600330305527 0.0
-0.130738 0.202856 1.04138 0.4822460776218007 0.5177539223781993 0.0
-0.111366 0.212175 1.04493 0.48885218827415416 0.5111478117258459 0.0
-0.0482977 0.18038 1.02551 0.4954582989265076 0.5045417010734924 0.0
-0.0495073 0.16729 1.02034 0.502064409578861 0.497935590421139 0.0
-0.0388084 0.175248 1.02249 0.5086705202312144 0.4913294797687856 0.0
-0.0619679 0.186468 1.02933 0.5152766308835678 0.4847233691164322 0.0
-0.064394 0.171181 1.0234 0.5218827415359212 0.4781172584640788 0.0
-0.0786568 0.195711 1.03472 0.5284888521882746 0.47151114781172543 0.0
-0.0754444 0.177015 1.02685 0.535094962840628 0.46490503715937204 0.0
-0.0957605 0.202423 1.03913 0.5417010734929814 0.45829892650701864 0.0
-0.0961671 0.178924 1.02968 0.5483071841453347 0.45169281585466525 0.0
-0.11094 0.191906 1.03639 0.5549132947976881 0.44508670520231186 0.0
-0.21495 0.261181 1.0031 0.5615194054500415 0.43848059454995847 0.0
-0.214816 0.249878 1.01255 0.5681255161023949 0.4318744838976051 0.0
-0.207728 0.259206 1.02415 0.5747316267547483 0.4252683732452517 0.0
-0.225148 0.261898 0.975031 0.5813377374071017 0.4186622625928983 0.0
-0.225987 0.248896 0.983226 0.5879438480594551 0.4120561519405449 0.0
-0.237512 0.265861 0.938516 0.5945499587118085 0.4054500412881915 0.0
-0.239 0.246328 0.95027 0.6011560693641619 0.3988439306358381 0.0
-0.249378 0.265876 0.906519 0.6077621800165153 0.3922378199834847 0.0
-0.251212 0.246154 0.917439 0.6143682906688687 0.38563170933113133 0.0
-0.260859 0.268624 0.873362 0.6209744013212221 0.37902559867877794 0.0
-0.26212 0.248008 0.886544 0.6275805119735755 0.37241948802642455 0.0
-0.271938 0.270865 0.841696 0.6341866226259288 0.36581337737407116 0.0
-0.271441 0.252146 0.858093 0.6407927332782822 0.35920726672171777 0.0
-0.281925 0.268641 0.816565 0.6473988439306356 0.3526011560693644 0.0
-0.280463 0.258392 0.82875 0.654004954582989 0.345995045417011 0.0
-0.0366177 0.171458 1.02504 0.6606110652353424 0.3393889347646576 0.0
-0.0400537 0.160256 1.01344 0.6672171758876958 0.3327828241123042 0.0
-0.0307942 0.166742 1.00399 0.6738232865400492 0.3261767134599508 0.0
-0.0343238 0.150607 0.984118 0.6804293971924026 0.3195706028075974 0.0
-0.0242529 0.158875 0.975923 0.687035507844756 0.312964492155244 0.0
-0.0288062 0.138536 0.951165 0.6936416184971094 0.30635838150289063 0.0
-0.0138091 0.151142 0.939413 0.7002477291494628 0.29975227085053724 0.0
-0.0218126 0.128513 0.918337 0.7068538398018162 0.29314616019818385 0.0
-0.00686365 0.14151 0.907419 0.7134599504541695 0.28654004954583046 0.0
-0.0139323 0.120732 0.887445 0.7200660611065229 0.27993393889347706 0.0
0.00207678 0.133785 0.874265 0.7266721717588763 0.27332782824112367 0.0
-0.00512487 0.115574 0.858997 0.7332782824112297 0.2667217175887703 0.0
0.0103709 0.126091 0.842603 0.7398843930635831 0.2601156069364169 0.0
0.00521996 0.111887 0.829657 0.7464905037159365 0.2535094962840635 0.0
0.0143996 0.116679 0.817475 0.7530966143682899 0.2469033856317101 0.0
-0.94058 0.464161 -2.81369 0.7597027250206433 0.2402972749793567 0.0
-1.13524 0.623563 -3.08199 0.7663088356729967 0.23369116432700332 0.0
-1.35711 0.332541 -3.1458 0.7729149463253501 0.22708505367464993 0.0
-1.23675 0.328285 -3.03807 0.7795210569777035 0.22047894302229654 0.0
-0.93097 0.455047 -2.82657 0.7861271676300569 0.21387283236994314 0.0
-0.91796 0.452561 -2.83944 0.7927332782824102 0.20726672171758975 0.0
-1.11224 0.667785 -3.0817 0.7993393889347636 0.20066061106523636 0.0
-0.872933 0.49543 -2.8602 0.805945499587117 0.19405450041288297 0.0
-0.862397 0.521515 -2.85764 0.8125516102394704 0.18744838976052958 0.0
-0.853994 0.5439 -2.85487 0.8191577208918238 0.18084227910817618 0.0
-0.844137 0.583425 -2.84549 0.8257638315441772 0.1742361684558228 0.0
-0.88988 0.467923 -2.85764 0.8323699421965306 0.1676300578034694 0.0
-0.998629 0.672676 -3.01235 0.838976052848884 0.161023947151116 0.0
-0.841907 0.628719 -2.82657 0.8455821635012374 0.15441783649876262 0.0
-0.932043 0.525743 -2.79293 0.8521882741535908 0.14781172584640923 0.0
-0.917008 0.549521 -2.79549 0.8587943848059442 0.14120561519405583 0.0
-0.903733 0.569407 -2.79826 0.8654004954582976 0.13459950454170244 0.0
-0.877389 0.600477 -2.80765 0.872006606110651 0.12799339388934905 0.0
-0.944491 0.495928 -2.79549 0.8786127167630043 0.12138728323699566 0.0
-1.02378 0.685576 -2.98372 0.8852188274153577 0.11478117258464227 0.0
0.0875415 0.627269 -0.934596 0.8918249380677111 0.10817506193228887 0.0
0.0473747 0.634022 -1.20452 0.8984310487200645 0.10156895127993548 0.0
0.0615562 0.659034 -1.16895 0.9050371593724179 0.09496284062758209 0.0
0.0347953 0.654318 -0.932587 0.9116432700247713 0.0883567299752287 0.0
0.0994938 0.646174 -0.715886 0.9182493806771247 0.0817506193228753 0.0
0.1734 0.509635 -0.715886 0.9248554913294781 0.07514450867052191 0.0
0.104353 0.509124 -1.20817 0.9314616019818315 0.06853839801816852 0.0
-0.0545143 0.626514 -0.715886 0.9380677126341849 0.06193228736581513 0.0
-0.0873026 0.607409 -1.20087 0.9446738232865383 0.05532617671346174 0.0
-0.20974 0.434567 0.836976 0.9512799339388917 0.04872006606110835 0.0
-0.22945 0.415435 0.812886 0.957886044591245 0.042113955408754955 0.0
-0.139064 0.382979 1.05074 0.9644921552435984 0.03550784475640156 0.0
-0.104628 0.434754 1.05464 0.9710982658959518 0.02890173410404817 0.0
-0.19933 0.462165 0.820504 0.9777043765483052 0.02229562345169478 0.0
-0.20186 0.476068 0.790106 0.9843104872006586 0.015689512799341387 0.0
-0.191098 0.500379 0.699328 0.990916597853012 0.009083402146987996 0.0
-0.276318 0.355251 0.699328 0.9975227085053654 0.0024772914946346036 0.0
-0.239691 0.42301 0.771134 1.004128819157719 -0.004128819157718899 0.0
-0.220223 0.467394 0.752389 1.0107349298100723 -0.010734929810072291 0.0
-0.194124 0.449376 0.808007 1.0173410404624257 -0.017341040462425683 0.0
-0.19636 0.440459 0.813905 1.023947151114779 -0.023947151114779075 0.0
0.191178 0.221079 0.272107 1.0305532617671325 -0.030553261767132467 0.0
0.0825473 0.171217 0.699328 1.0371593724194859 -0.03715937241948586 0.0
0.131717 0.0553759 0.272107 1.0437654830718393 -0.04376548307183925 0.0
0.150672 0.325113 0.699328 1.0503715937241926 -0.05037159372419264 0.0
0.0249695 0.298859 1.05074 1.056977704376546 -0.056977704376546034 0.0
0.104071 0.244398 0.812886 1.0635838150288994 -0.06358381502889943 0.0
0.108106 0.271569 0.836976 1.0701899256812528 -0.07018992568125282 0.0
0.0469194 0.357038 1.05464 1.0767960363336062 -0.07679603633360621 0.0
0.124442 0.296128 0.820504 1.0834021469859596 -0.0834021469859596 0.0
0.137209 0.302186 0.790106 1.090008257638313 -0.090008257638313 0.0
0.116198 0.240502 0.771134 1.0966143682906664 -0.09661436829066639 0.0
0.140881 0.282212 0.752389 1.1032204789430198 -0.10322047894301978 0.0
0.105083 0.285873 0.813905 1.1098265895953732 -0.10982658959537317 0.0
0.111019 0.292892 0.808007 1.1164327002477266 -0.11643270024772656 0.0
-0.109663 0.389108 1.08691 1.12303881090008 -0.12303881090007995 0.0
0.0127899 0.326311 1.08691 1.1296449215524333 -0.12964492155243335 0.0
-0.292194 0.263405 0.754163 1.1362510322047867 -0.13625103220478674 0.0
-0.302673 0.270221 0.699328 1.1428571428571401 -0.14285714285714013 0.0
-0.0729875 0.452666 1.06603 1.1494632535094935 -0.14946325350949352 0.0
-0.116727 0.546654 0.699328 1.156069364161847 -0.1560693641618469 0.0
-0.0371176 0.457081 1.07363 1.1626754748142003 -0.1626754748142003 0.0
-0.0338186 0.56054 0.699328 1.1692815854665537 -0.1692815854665537 0.0
-0.00247896 0.447327 1.0763 1.175887696118907 -0.1758876961189071 0.0
0.0450063 0.539923 0.699328 1.1824938067712605 -0.18249380677126048 0.0
0.0256552 0.42489 1.07363 1.1890999174236139 -0.18909991742361387 0.0
0.107747 0.487942 0.699328 1.1957060280759673 -0.19570602807596726 0.0
0.0430016 0.393184 1.06603 1.2023121387283207 -0.20231213872832066 0.0
0.144852 0.412511 0.699328 1.208918249380674 -0.20891824938067405 0.0
0.0172252 0.104728 0.754163 1.2155243600330274 -0.21552436003302744 0.0
0.0288754 0.100196 0.699328 1.2221304706853808 -0.22213047068538083 0.0
0.0538386 -0.0467326 0.272107 1.2287365813377342 -0.22873658133773422 0.0
0.183609 0.348009 0.269367 1.2353426919900876 -0.23534269199008762 0.0
0.143852 0.482537 0.269367 1.241948802642441 -0.241948802642441 0.0
0.0754651 0.599318 0.269367 1.2485549132947944 -0.2485549132947944 0.0
-0.059277 0.586706 0.269367 1.2551610239471478 -0.2551610239471478 0.0
-0.191724 0.540488 0.269367 1.2617671345995012 -0.2617671345995012 0.0
-0.299218 0.472565 0.272107 1.2683732452518546 -0.2683732452518546 0.0
-0.399084 0.327582 0.272107 1.274979355904208 -0.27497935590420797 0.0
-0.436558 0.204753 0.272107 1.2815854665565614 -0.28158546655656136 0.0
-0.0838768 0.397663 1.12058 1.2881915772089148 -0.28819157720891475 0.0
-0.0574992 0.412542 1.1415 1.2947976878612681 -0.29479768786126814 0.0
-0.0324951 0.42177 1.15733 1.3014037985136215 -0.30140379851362153 0.0
-0.0159623 0.421034 1.15842 1.308009909165975 -0.3080099091659749 0.0
-0.00571754 0.408038 1.15733 1.3146160198183283 -0.3146160198183283 0.0
0.00138026 0.382348 1.1415 1.3212221304706817 -0.3212221304706817 0.0
0.00468933 0.352244 1.12058 1.327828241123035 -0.3278282411230351 0.0
0.151204 0.0138938 -0.217222 1.3344343517753885 -0.3344343517753885 0.0
0.0849373 -0.156834 -0.444799 1.3410404624277419 -0.3410404624277419 0.0
0.131196 -0.0253977 -0.715886 1.3476465730800953 -0.3476465730800953 0.0
0.0440267 -0.139169 -0.715886 1.3542526837324487 -0.35425268373244867 0.0
0.0641975 -0.0998014 -0.217222 1.360858794384802 -0.36085879438480206 0.0
0.0692962 -0.194415 -0.680294 1.3674649050371555 -0.36746490503715545 0.0
0.0704937 -0.0554931 -0.024665 1.3740710156895088 -0.37407101568950885 0.0
0.0648816 -0.0389368 0.17403 1.3806771263418622 -0.38067712634186224 0.0
0.15207 0.0457925 0.186063 1.3872832369942156 -0.38728323699421563 0.0
0.205566 0.202288 0.186095 1.393889347646569 -0.393889347646569 0.0
0.191703 0.330997 0.168128 1.4004954582989224 -0.4004954582989224 0.0
0.137208 0.0499622 0.170187 1.4071015689512758 -0.4071015689512758 0.0
0.0684697 -0.0455696 0.0798466 1.4137076796036292 -0.4137076796036292 0.0
0.157584 0.0413357 0.0883511 1.4203137902559826 -0.4203137902559826 0.0
0.190705 0.206458 0.170219 1.426919900908336 -0.426919900908336 0.0
0.210209 0.195354 0.0887287 1.4335260115606894 -0.4335260115606894 0.0
0.197795 0.335564 0.0752199 1.4401321222130428 -0.44013212221304276 0.0
0.142723 0.0455054 0.0724752 1.4467382328653962 -0.44673823286539616 0.0
0.161814 0.0335412 -0.00735411 1.4533443435177495 -0.45334434351774955 0.0
0.195348 0.199524 0.0728528 1.459950454170103 -0.45995045417010294 0.0
0.214894 0.188357 -0.00951618 1.4665565648224563 -0.46655656482245633 0.0
0.204181 0.343704 -0.0214383 1.4731626754748097 -0.4731626754748097 0.0
0.146952 0.0377108 -0.02323 1.4797687861271631 -0.4797687861271631 0.0
0.0768387 -0.058975 -0.122662 1.4863748967795165 -0.4863748967795165 0.0
0.168516 0.0322427 -0.106564 1.49298100743187 -0.4929810074318699 0.0
0.221788 0.187729 -0.108204 1.4995871180842233 -0.4995871180842233 0.0
0.200032 0.192527 -0.0253921 1.5061932287365767 -0.5061932287365767 0.0
0.21075 0.348406 -0.121672 1.51279933938893 -0.5127993393889301 0.0
0.153654 0.0364123 -0.12244 1.5194054500412835 -0.5194054500412835 0.0
0.159717 0.000866273 -0.204194 1.5260115606936369 -0.5260115606936369 0.0
0.206926 0.191899 -0.12408 1.5326176713459903 -0.5326176713459903 0.0
0.21267 0.156822 -0.199178 1.5392237819983436 -0.5392237819983436 0.0
0.212299 0.34756 -0.217222 1.545829892650697 -0.545829892650697 0.0
-0.436671 0.21827 0.17403 1.5524360033030504 -0.5524360033030504 0.0
-0.453391 0.213166 -0.024665 1.5590421139554038 -0.5590421139554038 0.0
-0.418743 0.338517 0.186063 1.5656482246077572 -0.5656482246077572 0.0
-0.322874 0.473284 0.186096 1.5722543352601106 -0.5722543352601106 0.0
-0.210263 0.537134 0.168128 1.578860445912464 -0.578860445912464 0.0
-0.42558 0.340394 0.0883512 1.5854665565648174 -0.5854665565648174 0.0
-0.444151 0.217313 0.0798466 1.5920726672171708 -0.5920726672171708 0.0
-0.406684 0.328881 0.170187 1.5986787778695242 -0.5986787778695242 0.0
-0.331215 0.473008 0.0887288 1.6052848885218776 -0.6052848885218776 0.0
-0.310816 0.463648 0.17022 1.611890999174231 -0.611890999174231 0.0
-0.21011 0.544745 0.07522 1.6184971098265843 -0.6184971098265843 0.0
-0.434378 0.33928 -0.00735402 1.6251032204789377 -0.6251032204789377 0.0
-0.413522 0.330759 0.0724753 1.6317093311312911 -0.6317093311312911 0.0
-0.339631 0.472729 -0.00951609 1.6383154417836445 -0.6383154417836445 0.0
-0.319156 0.463372 0.0728529 1.644921552435998 -0.6449215524359979 0.0
-0.207225 0.554682 -0.0214382 1.6515276630883513 -0.6515276630883513 0.0
-0.439344 0.343965 -0.106564 1.6581337737407047 -0.6581337737407047 0.0
-0.459921 0.216286 -0.122662 1.664739884393058 -0.6647398843930581 0.0
-0.422319 0.329645 -0.0232299 1.6713459950454115 -0.6713459950454115 0.0
-0.327572 0.463093 -0.025392 1.6779521056977649 -0.6779521056977649 0.0
-0.344164 0.47796 -0.108204 1.6845582163501183 -0.6845582163501183 0.0
-0.20724 0.56276 -0.121672 1.6911643270024717 -0.6911643270024717 0.0
-0.459689 0.31851 -0.204194 1.697770437654825 -0.697770437654825 0.0
-0.485699 0.182197 -0.217222 1.7043765483071784 -0.7043765483071784 0.0
-0.427285 0.33433 -0.12244 1.7109826589595318 -0.7109826589595318 0.0
-0.208832 0.563524 -0.217222 1.7175887696118852 -0.7175887696118852 0.0
-0.363942 0.45252 -0.199178 1.7241948802642386 -0.7241948802642386 0.0
-0.332105 0.468325 -0.12408 1.730800990916592 -0.730800990916592 0.0
-0.0419135 -0.0756747 -1.21281 1.7374071015689454 -0.7374071015689454 0.0
0.0326083 0.0255148 -1.21349 1.7440132122212988 -0.7440132122212988 0.0
0.19904 0.162726 -0.715886 1.7506193228736522 -0.7506193228736522 0.0
0.0940933 0.189538 -1.21281 1.7572254335260056 -0.7572254335260056 0.0
0.211221 0.345458 -0.715886 1.763831544178359 -0.763831544178359 0.0
0.110382 0.346968 -1.21086 1.7704376548307124 -0.7704376548307124 0.0
-0.20991 0.561422 -0.715886 1.7770437654830658 -0.7770437654830658 0.0
-0.222504 0.517679 -1.19818 1.7836498761354191 -0.7836498761354191 0.0
-0.351194 0.444897 -0.715886 1.7902559867877725 -0.7902559867877725 0.0
-0.340843 0.412583 -1.19624 1.796862097440126 -0.7968620974401259 0.0
-0.464374 0.280023 -0.715886 1.8034682080924793 -0.8034682080924793 0.0
-0.438163 0.266936 -1.19556 1.8100743187448327 -0.8100743187448327 0.0
-0.505898 0.142843 -0.715886 1.816680429397186 -0.8166804293971861 0.0
-0.47685 0.14737 -1.19624 1.8232865400495395 -0.8232865400495395 0.0
-0.444142 0.319199 -0.217222 1.8298926507018929 -0.8298926507018929 0.0
-0.350116 0.446999 -0.217222 1.8364987613542463 -0.8364987613542463 0.0
-0.0534363 0.628617 -0.217222 1.8431048720065997 -0.8431048720065997 0.0
0.100572 0.648276 -0.217222 1.849710982658953 -0.8497109826589531 0.0
0.174478 0.511737 -0.217222 1.8563170933113065 -0.8563170933113065 0.0
0.200118 0.164828 -0.217222 1.8629232039636598 -0.8629232039636598 0.0
-0.544116 0.165758 -0.444799 1.8695293146160132 -0.8695293146160132 0.0
-0.565507 0.131125 -0.680294 1.8761354252683666 -0.8761354252683666 0.0
-0.83545 0.39447 -2.65239 1.88274153592072 -0.88274153592072 0.0
-0.885959 0.356298 -2.61738 1.8893476465730734 -0.8893476465730734 0.0
-0.783939 0.385437 -2.56036 1.8959537572254268 -0.8959537572254268 0.0
-0.726355 0.256237 -2.30195 1.9025598678777802 -0.9025598678777802 0.0
-0.773034 0.223441 -2.28771 1.9091659785301336 -0.9091659785301336 0.0
-0.724096 0.244362 -2.23854 1.915772089182487 -0.915772089182487 0.0
-0.665891 0.293212 -2.32605 1.9223781998348404 -0.9223781998348404 0.0
-0.626668 0.283781 -2.17958 1.9289843104871938 -0.9289843104871938 0.0
-0.690409 0.337473 -2.633 1.9355904211395472 -0.9355904211395472 0.0
-0.746577 0.28482 -2.72564 1.9421965317919005 -0.9421965317919005 0.0
-0.758359 0.354936 -2.71227 1.948802642444254 -0.9488026424442539 0.0
-0.477019 0.117655 -2.36493 1.9554087530966073 -0.9554087530966073 0.0
-0.508822 0.0879482 -2.42285 1.9620148637489607 -0.9620148637489607 0.0
-0.510873 0.145734 -2.41217 1.9686209744013141 -0.9686209744013141 0.0
-0.441313 0.188727 -2.27439 1.9752270850536675 -0.9752270850536675 0.0
-0.521022 0.21892 -2.40015 1.981833195706021 -0.9818331957060209 0.0
-0.592308 0.676187 -2.61797 1.9884393063583743 -0.9884393063583743 0.0
-0.587573 0.590921 -2.55557 1.9950454170107277 -0.9950454170107277 0.0
-0.665904 0.5986 -2.6615 2.001651527663081 -1.001651527663081 0.0
-0.617295 0.685397 -2.65622 2.0082576383154347 -1.0082576383154347 0.0
-0.607846 0.723799 -2.66941 2.0148637489677883 -1.0148637489677883 0.0
-0.453727 0.28729 -1.55199 2.021469859620142 -1.021469859620142 0.0
-0.487459 0.185126 -1.55426 2.0280759702724955 -1.0280759702724955 0.0
-0.37137 0.4115 -1.55426 2.034682080924849 -1.0346820809248491 0.0
-0.272004 0.501647 -1.56074 2.0412881915772028 -1.0412881915772028 0.0
-0.164086 0.557014 -1.57043 2.0478943022295564 -1.0478943022295564 0.0
-0.0568052 0.583291 -1.58187 2.05450041288191 -1.05450041288191 0.0
-0.01554 0.480837 -1.5933 2.0611065235342636 -1.0611065235342636 0.0
0.00247342 0.360889 -1.603 2.067712634186617 -1.0677126341866172 0.0
-0.012748 0.227591 -1.60948 2.074318744838971 -1.0743187448389708 0.0
-0.0655567 0.0882287 -1.61175 2.0809248554913244 -1.0809248554913244 0.0
-0.128837 0.00121738 -1.60948 2.087530966143678 -1.087530966143678 0.0
-0.520052 0.324848 -1.84239 2.0941370767960317 -1.0941370767960317 0.0
-0.54911 0.239371 -1.84702 2.1007431874483853 -1.1007431874483853 0.0
-0.45214 0.428463 -1.84702 2.107349298100739 -1.107349298100739 0.0
-0.371168 0.504304 -1.8602 2.1139554087530925 -1.1139554087530925 0.0
-0.283094 0.553246 -1.87993 2.120561519405446 -1.1205615194054461 0.0
-0.194411 0.581322 -1.9032 2.1271676300577997 -1.1271676300577997 0.0
-0.16546 0.492921 -1.92647 2.1337737407101534 -1.1337737407101534 0.0
-0.153809 0.392838 -1.94619 2.140379851362507 -1.140379851362507 0.0
-0.168146 0.282825 -1.95937 2.1469859620148606 -1.1469859620148606 0.0
-0.21266 0.167211 -1.964 2.153592072667214 -1.1535920726672142 0.0
-0.265116 0.0937339 -1.95937 2.160198183319568 -1.1601981833195678 0.0
-0.42775 0.198996 -2.29666 2.1668042939719214 -1.1668042939719214 0.0
-0.387039 0.256957 -2.30112 2.173410404624275 -1.173410404624275 0.0
-0.352417 0.345896 -2.29666 2.1800165152766287 -1.1800165152766287 0.0
-0.340466 0.430218 -2.28399 2.1866226259289823 -1.1866226259289823 0.0
-0.346896 0.508999 -2.26503 2.193228736581336 -1.1932287365813359 0.0
-0.364096 0.583177 -2.24265 2.1998348472336895 -1.1998348472336895 0.0
-0.434372 0.553859 -2.22028 2.206440957886043 -1.206440957886043 0.0
-0.502101 0.513108 -2.20131 2.2130470685383967 -1.2130470685383967 0.0
-0.563603 0.454197 -2.18864 2.2196531791907503 -1.2196531791907503 0.0
-0.615624 0.37418 -2.18419 2.226259289843104 -1.226259289843104 0.0
-0.638936 0.307297 -2.18864 2.2328654004954576 -1.2328654004954576 0.0
-0.773338 0.397014 -2.50249 2.239471511147811 -1.2394715111478112 0.0
-0.757572 0.441626 -2.49811 2.246077621800165 -1.2460776218001648 0.0
-0.724606 0.49204 -2.50249 2.2526837324525184 -1.2526837324525184 0.0
-0.685396 0.529003 -2.51494 2.259289843104872 -1.259289843104872 0.0
-0.63966 0.559079 -2.53358 2.2658959537572256 -1.2658959537572256 0.0
-0.583037 0.530041 -2.57756 2.2725020644095792 -1.2725020644095792 0.0
-0.580771 0.475349 -2.5962 2.279108175061933 -1.2791081750619329 0.0
-0.587906 0.421938 -2.60865 2.2857142857142865 -1.2857142857142865 0.0
-0.609609 0.365748 -2.61303 2.29232039636664 -1.29232039636664 0.0
-0.636638 0.326911 -2.60865 2.2989265070189937 -1.2989265070189937 0.0
-0.903531 0.457083 -2.85035 2.3055326176713473 -1.3055326176713473 0.0
-0.945328 0.478517 -2.80278 2.312138728323701 -1.312138728323701 0.0
-0.265543 0.0262224 0.781723 2.3187448389760545 -1.3187448389760545 0.0
-0.227895 0.17752 0.795268 2.325350949628408 -1.3253509496284082 0.0
-0.339981 0.101677 0.665075 2.3319570602807618 -1.3319570602807618 0.0
-0.303893 0.0286823 0.665075 2.3385631709331154 -1.3385631709331154 0.0
-0.0900415 0.106826 0.795268 2.345169281585469 -1.345169281585469 0.0
-0.0862242 -0.0284542 0.665075 2.3517753922378226 -1.3517753922378226 0.0
-0.190937 -0.0120369 0.781723 2.3583815028901762 -1.3583815028901762 0.0
-0.166561 -0.0417444 0.665075 2.36498761354253 -1.3649876135425298 0.0
-0.2327 -0.00160346 0.79227 2.3715937241948835 -1.3715937241948835 0.0
-0.242996 -0.0216807 0.665075 2.378199834847237 -1.378199834847237 0.0
-0.369171 -0.0175871 0.272107 2.3848059454995907 -1.3848059454995907 0.0
-0.278331 -0.0905837 0.272107 2.3914120561519443 -1.3914120561519443 0.0
-0.166042 -0.121756 0.272107 2.398018166804298 -1.398018166804298 0.0
-0.0493996 -0.106357 0.272107 2.4046242774566515 -1.4046242774566515 0.0
-0.424733 0.0861213 0.272107 2.411230388109005 -1.4112303881090051 0.0
-0.224385 0.0537993 0.919959 2.4178364987613588 -1.4178364987613588 0.0
-0.233723 0.0791581 0.951743 2.4244426094137124 -1.4244426094137124 0.0
-0.170118 0.0465402 0.947306 2.431048720066066 -1.431048720066066 0.0
-0.192559 0.0374787 0.919959 2.4376548307184196 -1.4376548307184196 0.0
-0.209603 0.0434342 0.919155 2.444260941370773 -1.4442609413707732 0.0
-0.0716609 -0.206153 -0.715886 2.450867052023127 -1.4508670520231268 0.0
0.0362234 -0.21166 -0.444799 2.4574731626754804 -1.4574731626754804 0.0
-0.0512331 -0.166658 -0.217222 2.464079273327834 -1.464079273327834 0.0
-0.430351 -0.106368 -0.715886 2.4706853839801877 -1.4706853839801877 0.0
-0.42451 -0.0643059 -1.20109 2.4772914946325413 -1.4772914946325413 0.0
-0.344988 -0.131084 -1.20452 2.483897605284895 -1.483897605284895 0.0
-0.328427 -0.188271 -0.715886 2.4905037159372485 -1.4905037159372485 0.0
-0.202437 -0.223247 -0.715886 2.497109826589602 -1.4971098265896021 0.0
-0.244353 -0.156694 -1.20795 2.5037159372419557 -1.5037159372419557 0.0
-0.137928 -0.137237 -1.21086 2.5103220478943093 -1.5103220478943093 0.0
-0.492784 0.00980755 -0.715886 2.516928158546663 -1.516928158546663 0.0
-0.470814 0.033474 -1.19818 2.5235342691990166 -1.5235342691990166 0.0
-0.410233 -0.0671364 -0.217222 2.53014037985137 -1.5301403798513702 0.0
-0.472632 0.049444 -0.217222 2.536746490503724 -1.5367464905037238 0.0
-0.182318 -0.184015 -0.217222 2.5433526011560774 -1.5433526011560774 0.0
-0.308308 -0.14904 -0.217222 2.549958711808431 -1.549958711808431 0.0
-0.560212 0.0942041 -0.444799 2.5565648224607846 -1.5565648224607846 0.0
-0.483679 0.0888814 -1.56074 2.5631709331131383 -1.5631709331131383 0.0
-0.446299 0.00669894 -1.57043 2.569777043765492 -1.5697770437654919 0.0
-0.209201 -0.0518763 -1.603 2.5763831544178455 -1.5763831544178455 0.0
-0.297753 -0.0694786 -1.5933 2.582989265070199 -1.582989265070199 0.0
-0.381011 -0.0489097 -1.58187 2.5895953757225527 -1.5895953757225527 0.0
-0.547642 0.160179 -1.8602 2.5962014863749063 -1.5962014863749063 0.0
-0.519061 0.0931093 -1.87993 2.60280759702726 -1.60280759702726 0.0
-0.330283 0.0487124 -1.94619 2.6094137076796136 -1.6094137076796136 0.0
-0.401427 0.0327843 -1.92647 2.616019818331967 -1.6160198183319672 0.0
-0.467717 0.0483744 -1.9032 2.622625928984321 -1.6226259289843208 0.0
-0.618028 0.19573 -2.22028 2.6292320396366744 -1.6292320396366744 0.0
-0.580049 0.162069 -2.24265 2.635838150289028 -1.635838150289028 0.0
-0.530552 0.15087 -2.26503 2.6424442609413816 -1.6424442609413816 0.0
-0.477072 0.163837 -2.28399 2.6490503715937352 -1.6490503715937352 0.0
-0.638706 0.246727 -2.20131 2.655656482246089 -1.6556564822460889 0.0
-0.759135 0.326101 -2.53358 2.6622625928984425 -1.6622625928984425 0.0
-0.772788 0.358589 -2.51494 2.668868703550796 -1.668868703550796 0.0
-0.668163 0.304935 -2.5962 2.6754748142031497 -1.6754748142031497 0.0
-0.702512 0.297064 -2.57756 2.6820809248555033 -1.6820809248555033 0.0
-0.734457 0.304497 -2.55557 2.688687035507857 -1.688687035507857 0.0
-0.850898 0.725834 -2.87823 2.6952931461602105 -1.6952931461602105 0.0
-0.835228 0.864869 -2.92711 2.701899256812564 -1.7018992568125642 0.0
-0.798864 1.10581 -3.00372 2.7085053674649178 -1.7085053674649178 0.0
-0.79322 1.38778 -3.12582 2.7151114781172714 -1.7151114781172714 0.0
-0.836863 1.52005 -3.22377 2.721717588769625 -1.721717588769625 0.0
-0.883656 1.41533 -3.2177 2.7283236994219786 -1.7283236994219786 0.0
-0.932058 1.15878 -3.14463 2.7349298100743322 -1.7349298100743322 0.0
0.167489 0.778764 -0.804107 2.741535920726686 -1.7415359207266858 0.0
0.208715 0.927578 -0.921071 2.7481420313790395 -1.7481420313790395 0.0
0.239004 0.99233 -0.997635 2.754748142031393 -1.754748142031393 0.0
0.275892 1.07345 -1.12134 2.7613542526837467 -1.7613542526837467 0.0
0.296624 1.12101 -1.21727 2.7679603633361003 -1.7679603633361003 0.0
0.252463 1.03378 -1.20227 2.774566473988454 -1.774566473988454 0.0
0.190494 0.913966 -1.2161 2.7811725846408075 -1.7811725846408075 0.0
0.104863 0.746974 -1.21595 2.787778695293161 -1.7877786952931611 0.0
0.0903933 0.720884 -1.24458 2.7943848059455147 -1.7943848059455147 0.0
0.0732182 0.686985 -1.23908 2.8009909165978684 -1.8009909165978684 0.0
-0.199832 0.430711 0.813087 2.807597027250222 -1.807597027250222 0.0
-0.203608 0.422741 0.805772 2.8142031379025756 -1.8142031379025756 0.0
-0.206677 0.418687 0.79392 2.820809248554929 -1.8208092485549292 0.0
-0.208217 0.419633 0.780707 2.827415359207283 -1.8274153592072828 0.0
-0.207815 0.425328 0.769673 2.8340214698596364 -1.8340214698596364 0.0
-0.205579 0.434244 0.763775 2.84062758051199 -1.84062758051199 0.0
-0.202107 0.443993 0.764593 2.8472336911643437 -1.8472336911643437 0.0
-0.198331 0.451962 0.771909 2.8538398018166973 -1.8538398018166973 0.0
-0.195262 0.456017 0.783761 2.860445912469051 -1.8604459124690509 0.0
-0.193722 0.45507 0.796973 2.8670520231214045 -1.8670520231214045 0.0
0.0991921 0.277365 0.813087 2.873658133773758 -1.8736581337737581 0.0
0.094924 0.269648 0.805772 2.8802642444261117 -1.8802642444261117 0.0
0.0934225 0.264789 0.79392 2.8868703550784653 -1.8868703550784653 0.0
0.0950899 0.264091 0.780707 2.893476465730819 -1.893476465730819 0.0
0.0994795 0.26774 0.769673 2.9000825763831726 -1.9000825763831726 0.0
0.105415 0.27476 0.763775 2.906688687035526 -1.9066886870355262 0.0
0.111306 0.283268 0.764593 2.91329479768788 -1.9132947976878798 0.0
0.115574 0.290985 0.771909 2.9199009083402334 -1.9199009083402334 0.0
0.117076 0.295844 0.783761 2.926507018992587 -1.926507018992587 0.0
0.115409 0.296542 0.796973 2.9331131296449406 -1.9331131296449406 0.0
-0.118593 0.222904 1.04843 2.9397192402972943 -1.9397192402972943 0.0
-0.0351218 0.175564 1.02512 2.946325350949648 -1.9463253509496479 0.0
-0.205331 0.263121 1.02462 2.9529314616020015 -1.9529314616020015 0.0
0.337911 -0.524097 -0.536808 2.959537572254355 -1.959537572254355 0.0
0.248826 -0.393287 -0.397413 2.9661436829067087 -1.9661436829067087 0.0
0.444837 -0.666306 -0.699083 2.9727497935590623 -1.9727497935590623 0.0
0.502694 -0.747847 -0.840157 2.979355904211416 -1.979355904211416 0.0
0.501187 -0.746062 -0.910318 2.9859620148637696 -1.9859620148637696 0.0
0.414368 -0.655624 -0.884919 2.992568125516123 -1.9925681255161232 0.0
0.339304 -0.525722 -0.829333 2.999174236168477 -1.9991742361684768 0.0
0.218619 -0.358049 -0.760222 3.0057803468208304 -2.0057803468208304 0.0
0.170867 -0.309953 -0.75194 3.012386457473184 -2.012386457473184 0.0
0.0853346 -0.213125 -0.750468 3.0189925681255376 -2.0189925681255376 0.0
-0.590061 0.133232 -0.750468 3.0255986787778912 -2.0255986787778912 0.0
-0.718605 0.146187 -0.75194 3.032204789430245 -2.032204789430245 0.0
-0.785528 0.156899 -0.760222 3.0388109000825985 -2.0388109000825985 0.0
-1.00612 0.164241 -0.829333 3.045417010734952 -2.045417010734952 0.0
-1.14841 0.145799 -0.884919 3.0520231213873057 -2.0520231213873057 0.0
-1.27653 0.165588 -0.910318 3.0586292320396593 -2.0586292320396593 0.0
-1.26783 0.160114 -0.840156 3.065235342692013 -2.065235342692013 0.0
-1.17486 0.164309 -0.699083 3.0718414533443665 -2.0718414533443665 0.0
-1.00399 0.164058 -0.536808 3.07844756399672 -2.07844756399672 0.0
-0.831771 0.160865 -0.397413 3.0850536746490738 -2.0850536746490738 0.0
3 0 1 2 
3 3 2 4 
3 5 6 7 
3 8 9 10 
3 11 12 9 
3 13 14 15 
3 16 17 14 
3 18 19 20 
3 21 22 23 
3 24 25 21 
3 26 27 24 
3 28 29 26 
3 30 31 28 
3 32 33 30 
3 34 35 32 
3 36 37 34 
3 38 39 36 
3 40 41 38 
3 42 43 44 
3 44 45 46 
3 46 47 48 
3 48 49 50 
3 50 51 52 
3 52 53 54 
3 54 55 56 
3 56 57 58 
3 58 59 60 
3 60 61 7 
3 62 63 64 
3 64 65 66 
3 66 67 68 
3 68 69 70 
3 70 71 72 
3 72 73 74 
3 75 76 77 
3 78 79 75 
3 80 81 78 
3 82 83 80 
3 74 84 82 
3 85 86 87 
3 88 89 85 
3 90 91 88 
3 92 93 90 
3 94 95 92 
3 96 97 94 
3 98 99 96 
3 100 101 102 
3 102 103 104 
3 104 105 106 
3 106 107 108 
3 108 109 110 
3 110 111 112 
3 112 113 114 
3 115 116 117 
3 115 117 118 
3 118 119 115 
3 120 117 116 
3 120 118 117 
3 120 119 118 
3 121 122 116 
3 121 123 122 
3 121 124 123 
3 121 125 124 
3 116 122 126 
3 127 125 121 
3 127 125 121 
3 127 128 125 
3 116 129 121 
3 129 130 121 
3 130 131 121 
3 131 132 121 
3 133 129 116 
3 134 132 121 
3 121 132 134 
3 132 128 134 
3 135 136 137 
3 137 136 138 
3 139 140 135 
3 136 135 141 
3 141 135 140 
3 138 142 139 
3 143 138 136 
3 142 138 143 
3 144 145 146 
3 144 146 147 
3 148 144 147 
3 149 148 147 
3 149 147 150 
3 146 145 151 
3 151 145 152 
3 151 152 153 
3 151 153 150 
3 153 149 150 
3 154 155 148 
3 156 157 158 
3 159 157 156 
3 160 161 162 
3 163 160 162 
3 163 162 164 
3 163 164 165 
3 159 163 165 
3 157 161 160 
3 166 161 157 
3 167 166 157 
3 159 167 157 
3 159 165 167 
3 164 168 169 
3 170 146 160 
3 170 160 171 
3 172 146 151 
3 172 151 173 
3 147 174 175 
3 147 175 150 
3 174 176 177 
3 174 177 175 
3 176 178 179 
3 176 179 177 
3 178 180 181 
3 178 181 179 
3 180 182 183 
3 180 183 181 
3 182 163 159 
3 182 159 183 
3 160 184 185 
3 160 185 157 
3 157 185 186 
3 157 186 158 
3 183 159 156 
3 183 156 187 
3 181 183 187 
3 181 187 188 
3 179 181 188 
3 179 188 189 
3 177 179 189 
3 177 189 190 
3 175 177 190 
3 175 190 191 
3 150 175 191 
3 150 191 192 
3 151 150 192 
3 151 192 193 
3 173 151 193 
3 173 193 194 
3 170 195 147 
3 170 147 146 
3 195 196 174 
3 195 174 147 
3 196 197 176 
3 196 176 174 
3 197 198 178 
3 197 178 176 
3 198 199 180 
3 198 180 178 
3 199 200 182 
3 199 182 180 
3 200 201 163 
3 200 163 182 
3 201 171 160 
3 201 160 163 
3 201 195 170 
3 201 170 171 
3 196 195 201 
3 196 201 200 
3 197 196 200 
3 197 200 199 
3 198 197 199 
3 202 203 204 
3 204 203 205 
3 203 202 206 
3 207 205 203 
3 208 209 186 
3 158 186 209 
3 158 209 210 
3 156 158 210 
3 156 210 211 
3 187 156 211 
3 187 211 212 
3 213 209 214 
3 213 214 215 
3 216 213 215 
3 216 215 217 
3 212 216 217 
3 212 217 218 
3 219 214 208 
3 219 208 220 
3 221 219 220 
3 221 220 222 
3 218 221 222 
3 218 222 223 
3 224 208 225 
3 224 225 226 
3 224 226 227 
3 224 227 228 
3 228 227 229 
3 228 229 223 
3 230 225 206 
3 230 206 231 
3 232 233 234 
3 232 234 229 
3 230 231 233 
3 230 233 232 
3 187 229 234 
3 187 223 229 
3 187 218 223 
3 187 212 218 
3 206 208 186 
3 206 225 208 
3 194 235 236 
3 237 235 194 
3 237 194 193 
3 238 237 193 
3 238 193 192 
3 239 238 192 
3 239 192 191 
3 240 241 235 
3 240 235 242 
3 243 240 242 
3 243 242 244 
3 245 243 244 
3 245 244 239 
3 246 236 241 
3 246 241 247 
3 248 246 247 
3 248 247 249 
3 250 248 249 
3 250 249 245 
3 251 252 236 
3 251 236 253 
3 254 255 251 
3 254 251 253 
3 250 256 255 
3 250 255 254 
3 257 258 252 
3 257 252 259 
3 256 260 261 
3 256 261 262 
3 262 261 257 
3 262 257 259 
3 260 256 191 
3 256 250 191 
3 250 245 191 
3 245 239 191 
3 194 236 258 
3 236 252 258 
3 204 205 263 
3 204 263 264 
3 265 204 264 
3 265 264 266 
3 267 265 266 
3 267 266 268 
3 140 267 268 
3 140 268 141 
3 269 142 143 
3 269 143 270 
3 271 269 270 
3 271 270 272 
3 273 271 272 
3 273 272 274 
3 275 273 274 
3 275 274 276 
3 277 278 271 
3 277 271 273 
3 278 260 269 
3 278 269 271 
3 260 279 142 
3 260 142 269 
3 279 280 139 
3 279 139 142 
3 280 281 140 
3 280 140 139 
3 281 234 267 
3 281 267 140 
3 234 282 265 
3 234 265 267 
3 282 202 204 
3 282 204 265 
3 188 187 234 
3 188 234 281 
3 189 188 281 
3 189 281 280 
3 190 189 280 
3 190 280 279 
3 191 190 279 
3 191 279 260 
3 235 241 236 
3 214 209 208 
3 273 283 277 
3 275 283 273 
3 258 277 283 
3 283 275 284 
3 285 286 287 
3 288 289 290 
3 291 288 290 
3 291 290 292 
3 293 294 295 
3 296 297 298 
3 299 296 298 
3 299 298 300 
3 301 302 303 
3 301 303 304 
3 305 301 304 
3 276 274 306 
3 276 306 307 
3 274 272 308 
3 274 308 306 
3 272 270 309 
3 272 309 308 
3 270 143 310 
3 270 310 309 
3 143 136 311 
3 143 311 310 
3 136 141 312 
3 136 312 311 
3 141 268 313 
3 141 313 312 
3 268 266 314 
3 268 314 313 
3 266 264 315 
3 266 315 314 
3 264 263 316 
3 264 316 315 
3 307 306 317 
3 307 317 318 
3 306 308 319 
3 306 319 317 
3 308 309 320 
3 308 320 319 
3 309 310 321 
3 309 321 320 
3 310 311 322 
3 310 322 321 
3 311 312 323 
3 311 323 322 
3 312 313 324 
3 312 324 323 
3 313 314 325 
3 313 325 324 
3 314 315 326 
3 314 326 325 
3 315 316 327 
3 315 327 326 
3 326 327 328 
3 326 328 329 
3 325 326 329 
3 325 329 330 
3 324 325 330 
3 324 330 331 
3 323 324 331 
3 323 331 332 
3 322 323 332 
3 322 332 333 
3 321 322 333 
3 321 333 334 
3 320 321 334 
3 320 334 335 
3 319 320 335 
3 319 335 336 
3 317 319 336 
3 317 336 337 
3 318 317 337 
3 318 337 338 
3 339 340 129 
3 339 129 133 
3 340 341 130 
3 340 130 129 
3 341 342 131 
3 341 131 130 
3 342 343 132 
3 342 132 131 
3 343 302 128 
3 343 128 132 
3 302 344 125 
3 302 125 128 
3 344 345 124 
3 344 124 125 
3 345 346 123 
3 345 123 124 
3 346 347 122 
3 346 122 123 
3 347 348 126 
3 347 126 122 
3 329 328 348 
3 329 348 347 
3 330 329 347 
3 330 347 346 
3 331 330 346 
3 331 346 345 
3 332 331 345 
3 332 345 344 
3 333 332 344 
3 333 344 302 
3 334 333 302 
3 334 302 343 
3 335 334 343 
3 335 343 342 
3 336 335 342 
3 336 342 341 
3 337 336 341 
3 337 341 340 
3 338 337 340 
3 338 340 339 
3 116 126 349 
3 116 349 120 
3 350 133 116 
3 115 350 116 
3 351 352 353 
3 351 353 354 
3 352 172 173 
3 352 173 353 
3 184 355 356 
3 184 356 185 
3 355 357 358 
3 355 358 356 
3 357 359 360 
3 357 360 358 
3 359 351 354 
3 359 354 360 
3 360 354 361 
3 360 361 362 
3 358 360 362 
3 358 362 363 
3 356 358 363 
3 356 363 364 
3 185 356 364 
3 185 364 186 
3 353 173 194 
3 353 194 365 
3 354 353 365 
3 354 365 361 
3 366 367 352 
3 366 352 351 
3 367 40 172 
3 367 172 352 
3 7 368 355 
3 7 355 184 
3 368 369 357 
3 368 357 355 
3 369 370 359 
3 369 359 357 
3 370 366 351 
3 370 351 359 
3 367 366 370 
3 367 370 369 
3 367 369 368 
3 371 372 373 
3 206 373 372 
3 205 372 371 
3 374 375 376 
3 374 376 377 
3 186 364 373 
3 186 373 206 
3 378 377 376 
3 378 376 379 
3 371 378 379 
3 371 379 380 
3 205 371 380 
3 205 380 263 
3 381 275 276 
3 381 276 382 
3 374 381 382 
3 374 382 375 
3 383 384 381 
3 383 381 374 
3 373 385 378 
3 373 378 371 
3 385 386 377 
3 385 377 378 
3 386 383 374 
3 386 374 377 
3 362 361 383 
3 362 383 386 
3 363 362 386 
3 363 386 385 
3 364 363 385 
3 364 385 373 
3 365 194 258 
3 365 258 384 
3 361 365 384 
3 361 384 383 
3 384 387 381 
3 381 387 275 
3 387 384 258 
3 98 172 23 
3 114 42 184 
3 375 382 388 
3 375 388 389 
3 382 276 307 
3 382 307 388 
3 263 380 390 
3 263 390 316 
3 380 379 391 
3 380 391 390 
3 379 376 392 
3 379 392 391 
3 376 375 389 
3 376 389 392 
3 389 388 393 
3 389 393 394 
3 388 307 318 
3 388 318 393 
3 316 390 395 
3 316 395 327 
3 390 391 396 
3 390 396 395 
3 391 392 397 
3 391 397 396 
3 392 389 394 
3 392 394 397 
3 397 394 398 
3 397 398 399 
3 396 397 399 
3 396 399 400 
3 395 396 400 
3 395 400 401 
3 327 395 401 
3 327 401 328 
3 393 318 338 
3 393 338 402 
3 394 393 402 
3 394 402 398 
3 403 404 350 
3 403 350 115 
3 404 339 133 
3 404 133 350 
3 348 405 349 
3 348 349 126 
3 405 406 120 
3 405 120 349 
3 406 407 119 
3 406 119 120 
3 407 403 115 
3 407 115 119 
3 399 398 403 
3 399 403 407 
3 400 399 407 
3 400 407 406 
3 401 400 406 
3 401 406 405 
3 328 401 405 
3 328 405 348 
3 402 338 339 
3 402 339 404 
3 398 402 404 
3 398 404 403 
3 127 408 128 
3 127 409 408 
3 127 410 409 
3 127 411 410 
3 127 412 411 
3 127 413 412 
3 127 414 413 
3 127 121 414 
3 128 408 134 
3 408 409 134 
3 409 410 134 
3 410 411 134 
3 411 412 134 
3 412 413 134 
3 413 414 134 
3 414 121 134 
3 415 139 135 
3 416 415 135 
3 417 416 135 
3 418 417 135 
3 419 418 135 
3 420 419 135 
3 421 420 135 
3 422 421 135 
3 423 422 135 
3 424 423 135 
3 135 137 424 
3 138 139 415 
3 138 415 416 
3 138 416 417 
3 138 417 418 
3 138 418 419 
3 138 419 420 
3 138 420 421 
3 138 421 422 
3 138 422 423 
3 138 423 424 
3 424 137 138 
3 155 425 144 
3 425 426 144 
3 426 427 145 
3 427 428 145 
3 428 429 152 
3 429 430 152 
3 430 431 153 
3 431 432 153 
3 432 433 149 
3 433 434 149 
3 434 154 148 
3 144 426 145 
3 145 428 152 
3 152 430 153 
3 153 432 149 
3 149 434 148 
3 155 144 148 
3 162 435 168 
3 162 436 435 
3 161 437 436 
3 161 438 437 
3 166 439 438 
3 166 440 439 
3 167 441 440 
3 167 442 441 
3 165 443 442 
3 165 444 443 
3 164 169 444 
3 161 436 162 
3 166 438 161 
3 167 440 166 
3 165 442 167 
3 164 444 165 
3 164 162 168 
3 160 445 446 
3 146 445 160 
3 146 447 445 
3 146 172 447 
3 160 446 184 
3 40 367 368 
3 40 368 7 
3 445 447 446 
3 40 7 184 
3 40 184 172 
3 184 446 447 
3 184 447 172 
3 233 231 202 
3 233 202 282 
3 233 282 234 
3 227 232 229 
3 226 225 230 
3 226 230 232 
3 226 232 227 
3 222 220 224 
3 222 224 228 
3 220 208 224 
3 217 221 218 
3 217 215 219 
3 217 219 221 
3 215 214 219 
3 210 209 213 
3 222 228 223 
3 211 216 212 
3 211 210 213 
3 211 213 216 
3 231 206 202 
3 278 277 257 
3 278 257 261 
3 260 278 261 
3 256 262 255 
3 259 252 251 
3 255 262 259 
3 255 259 251 
3 254 253 246 
3 254 246 248 
3 253 236 246 
3 245 249 243 
3 249 247 240 
3 249 240 243 
3 247 241 240 
3 242 235 237 
3 250 254 248 
3 239 244 238 
3 244 242 237 
3 244 237 238 
3 277 258 257 
3 448 449 372 
3 449 206 372 
3 450 448 372 
3 451 450 372 
3 452 451 372 
3 453 452 372 
3 454 453 372 
3 455 454 372 
3 456 455 372 
3 457 456 372 
3 372 205 207 
3 372 207 457 
3 457 207 203 
3 203 456 457 
3 203 455 456 
3 203 454 455 
3 203 453 454 
3 203 452 453 
3 203 451 452 
3 203 450 451 
3 203 448 450 
3 203 449 448 
3 203 206 449 
3 430 429 428 
3 430 428 427 
3 430 427 426 
3 430 426 425 
3 430 425 155 
3 430 155 154 
3 430 154 434 
3 430 434 433 
3 430 433 432 
3 430 432 431 
3 441 442 443 
3 441 443 444 
3 441 444 169 
3 441 169 168 
3 441 168 435 
3 441 435 436 
3 441 436 437 
3 441 437 438 
3 441 438 439 
3 441 439 440 
3 458 284 387 
3 284 275 387 
3 387 459 458 
3 387 460 459 
3 387 461 460 
3 387 462 461 
3 387 463 462 
3 387 464 463 
3 387 465 464 
3 387 466 465 
3 387 467 466 
3 387 258 467 
3 283 284 458 
3 458 459 283 
3 459 460 283 
3 460 461 283 
3 461 462 283 
3 462 463 283 
3 463 464 283 
3 464 465 283 
3 465 466 283 
3 466 467 283 
3 467 258 283 
